<svg width="72" height="46" viewBox="0 0 72 46" fill="none" xmlns="http://www.w3.org/2000/svg">
<g clip-path="url(#clip0_43_22)">
<path d="M50.2618 1.15984C47.5386 1.67453 45.4433 2.82377 43.8206 4.6851C42.2615 6.47595 41.4855 8.52766 41.4785 10.8543C41.4785 12.5042 41.8453 13.9354 42.6496 15.3948C43.8912 17.651 46.2546 19.4771 48.8861 20.2315C49.2741 20.3443 50.1419 20.5347 50.544 20.5981C50.6639 20.6122 52.47 20.6545 54.5653 20.6827L58.3749 20.7321L58.8406 20.9154C59.9766 21.3667 60.675 22.0364 61.0771 23.087C61.3237 23.7286 61.3592 24.6875 61.1544 25.3502C60.7808 26.577 59.8496 27.5429 58.6432 27.9448C58.2125 28.0929 58.0855 28.0929 53.0908 28.0929C48.103 28.0929 47.9689 28.0999 47.5033 28.2409C46.3745 28.5864 45.789 29.7568 46.2052 30.8566C46.3957 31.3714 46.7061 31.7168 47.1576 31.9283L47.5386 32.1117H53.0273C58.8617 32.1117 58.8617 32.1117 59.9411 31.7662C61.8671 31.1528 63.5958 29.644 64.527 27.7756C65.6064 25.611 65.5778 22.9036 64.4423 20.7815C63.6942 19.3643 62.3751 18.1305 60.9004 17.4395C60.6184 17.3126 60.3856 17.1787 60.3856 17.1504C60.3856 17.1152 60.5904 16.8402 60.8369 16.523C61.6486 15.5006 62.4529 13.7098 62.6079 12.5817C62.6222 12.483 62.6714 12.2362 62.7068 12.0247C62.9322 10.8684 62.6857 8.88723 62.1423 7.51941C61.7756 6.59578 61.0697 5.3549 60.7734 5.10813C60.6115 4.97417 60.6464 4.89662 60.8724 4.89662C61.5428 4.89662 62.3047 4.38898 62.6148 3.73328C63.0592 2.78851 62.6359 1.70273 61.62 1.20214L61.2676 1.02588L56.0823 1.03293C51.5034 1.03998 50.8191 1.05408 50.2618 1.15984ZM53.6481 5.17159C55.0166 5.45361 56.0749 6.0247 57.0696 7.01177C58.0506 7.99178 58.5231 8.88723 58.7347 10.1845C59.0522 12.074 58.0363 14.2386 56.2654 15.4654C53.6411 17.2773 50.1066 17.1787 47.6373 15.2327C45.669 13.6745 44.9353 11.2632 45.7608 9.03529C46.0077 8.37251 46.6567 7.41365 47.1929 6.91305C48.9425 5.2985 51.2565 4.67805 53.6481 5.17159Z" fill="black"/>
<path d="M5.39256 4.23361C4.91988 4.47332 4.63769 4.75534 4.40487 5.22773C4.23556 5.58026 4.21439 5.67897 4.24261 6.22891C4.25672 6.69423 4.29905 6.90574 4.42604 7.15253C4.88461 8.02678 5.67476 8.44277 6.65536 8.3229C7.09982 8.26653 7.69243 7.93514 7.94641 7.59671L8.12282 7.37108L7.72069 7.11726L7.3256 6.85641L7.08575 7.10319C6.69769 7.50507 5.9499 7.51914 5.58304 7.13138C4.68002 6.1725 5.60421 4.47332 6.74002 5.02327C6.90934 5.10787 7.09278 5.24888 7.15628 5.34759L7.26914 5.5168L7.57254 5.31234C8.08753 4.96686 8.10166 4.93161 7.78418 4.60728C7.36089 4.1772 7.03633 4.05029 6.33794 4.05029C5.84408 4.05029 5.68886 4.08555 5.39256 4.23361Z" fill="black"/>
<path d="M8.81421 6.2007V8.35109H10.2957H11.7844L11.7632 7.87169L11.742 7.39932L10.7755 7.37817L9.80191 7.35702V6.94102V6.51798H10.6485H11.4951V6.1302V5.74242H10.6485H9.80191V5.31939V4.89636H10.7543H11.7067V4.47332V4.05029H10.2605H8.81421V6.2007Z" fill="black"/>
<path d="M12.6944 6.2007V8.35817L13.2094 8.33702L13.7173 8.31587L13.7385 7.6249L13.7597 6.94102H14.056H14.3523L14.7615 7.64605L15.1706 8.35109H15.6927C15.982 8.35109 16.2289 8.32994 16.25 8.29472C16.2641 8.26648 16.0807 7.91399 15.8338 7.50502L15.3894 6.76472L15.6645 6.4686C15.8126 6.30647 15.9537 6.08789 15.9749 5.97508C16.0031 5.86932 16.0313 5.71421 16.0455 5.63666C16.1019 5.37579 15.9325 4.86815 15.6927 4.57203C15.3047 4.09964 15.1354 4.05029 13.8302 4.05029H12.6944V6.2007ZM14.8179 5.02327C14.9378 5.12902 14.9731 5.22773 14.9731 5.48155C14.9731 5.95393 14.8884 6.02444 14.2747 6.02444H13.7526V5.4604V4.89636H14.2041C14.5357 4.89636 14.698 4.93161 14.8179 5.02327Z" fill="black"/>
<path d="M16.5746 4.47332V4.89636H17.2095H17.8445L17.8586 6.60259L17.8798 8.31587L18.3524 8.33702L18.8322 8.35817L18.8462 6.64489L18.8674 4.93161L19.5235 4.91045L20.1726 4.8893V4.47332V4.05029H18.3736H16.5746V4.47332Z" fill="black"/>
<path d="M20.9487 6.2007V8.35817L21.4637 8.33702L21.9716 8.31587L21.9928 6.17955L22.0069 4.05029H21.4778H20.9487V6.2007Z" fill="black"/>
<path d="M23.0792 6.17955L23.1004 8.31587L23.6154 8.33702L24.1233 8.35817V7.50502V6.65896H24.8994H25.6754V6.23596V5.81997L24.9205 5.79882L24.1586 5.77767V5.35464V4.93161L25.0969 4.91045L26.0281 4.8893V4.47332V4.05029H24.5466H23.0651L23.0792 6.17955Z" fill="black"/>
<path d="M26.8748 6.2007V8.35109H27.3682H27.8615V6.2007V4.05029H27.3682H26.8748V6.2007Z" fill="black"/>
<path d="M28.9207 6.2007V8.35109H30.4022H31.8908L31.8696 7.87169L31.8484 7.39932L30.9172 7.37817L29.9789 7.35702V6.94102V6.51798H30.7902H31.6015V6.1302V5.74242H30.7902H29.9789V5.31939V4.89636H30.9313H31.8908L31.8696 4.48743L31.8484 4.08555L30.3881 4.0644L28.9207 4.05029V6.2007Z" fill="black"/>
<path d="M32.8715 6.2148V8.37224L33.9579 8.32994C34.9244 8.29472 35.0796 8.27357 35.4254 8.11139C36.0603 7.80824 36.406 7.33582 36.5471 6.56733C36.6176 6.1866 36.6106 6.03854 36.5118 5.62961C36.3425 4.95276 36.0391 4.55088 35.4747 4.26886C35.0373 4.05029 35.0232 4.05029 33.9509 4.05029H32.8715V6.2148ZM34.734 4.97391C35.5664 5.20658 35.8134 6.46157 35.1573 7.11727C34.9244 7.35697 34.8891 7.36405 34.3883 7.36405H33.8592V6.1302V4.89636H34.1625C34.3248 4.89636 34.5858 4.93161 34.734 4.97391Z" fill="black"/>
<path d="M2.66233 10.0083C1.90745 10.2128 1.20196 10.8473 0.940928 11.5453C0.806885 11.9049 0.806885 12.2221 0.806885 25.6957V39.4795L0.969148 39.8814C1.18079 40.389 1.85807 41.0517 2.35896 41.2492C2.70466 41.3831 3.2761 41.3831 31.3194 41.3831C55.0875 41.3831 60.0046 41.369 60.3856 41.2844C60.6396 41.2351 60.9078 41.1787 60.9851 41.1646C61.2745 41.1082 62.2693 40.7627 62.5724 40.6076C63.3698 40.2057 64.181 39.4302 64.5619 38.711C64.9926 37.879 65.1122 37.1598 65.1122 35.3338C65.1122 34.4736 65.1408 33.7333 65.1688 33.691C65.1969 33.6558 65.345 33.5641 65.5006 33.4866C66.0858 33.2186 66.7207 32.7392 67.3419 32.0976C68.2589 31.1528 68.6256 30.3209 68.8446 28.6922C68.9007 28.3115 68.9219 25.4983 68.9219 20.0623C68.9219 11.0659 68.9504 11.5947 68.4282 10.9107C68.1599 10.5512 67.6308 10.1634 67.2287 10.0295C67.0879 9.98715 66.3609 9.93781 65.5567 9.92369L64.1249 9.89551V10.4807C64.1249 10.805 64.1037 11.1364 64.0825 11.221L64.0402 11.3832H65.4508H66.8689L67.1514 11.651C67.3631 11.8485 67.4403 11.9824 67.4758 12.2292C67.4969 12.4055 67.5112 16.0365 67.4969 20.302C67.4758 27.4161 67.4615 28.0999 67.3488 28.5794C67.0313 29.9119 66.6927 30.5958 65.9731 31.3432C65.4651 31.879 64.8794 32.2598 64.2445 32.4642C63.7508 32.6193 63.7439 32.6616 63.6942 35.0377C63.6593 37.1528 63.6593 37.1528 63.4545 37.6746C63.2994 38.0765 63.1513 38.3091 62.8127 38.6687C62.347 39.1622 61.9661 39.3879 61.1618 39.6487C60.0327 40.0224 61.3735 40.0083 31.0724 40.0083H2.9798L2.73993 39.8461C2.60589 39.7615 2.42952 39.55 2.3378 39.3737L2.18259 39.0635V25.6675V12.2715L2.33075 11.9754C2.40835 11.8062 2.57767 11.6087 2.70466 11.5241C2.93747 11.3832 2.94452 11.3832 21.6823 11.3832H40.4202V10.6428V9.90254L21.7106 9.90957C6.58485 9.91666 2.93041 9.93073 2.66233 10.0083Z" fill="black"/>
<path d="M7.45259 14.3511C6.27441 14.478 5.32907 15.3592 4.86345 16.7412C4.77879 16.995 4.69413 17.2629 4.68002 17.3405C4.66591 17.418 4.61652 17.6366 4.56714 17.834C4.5107 18.0596 4.48248 18.673 4.48248 19.5614C4.48954 20.9574 4.5107 21.0913 4.84934 22.2053C5.19503 23.3405 6.07689 24.3135 7.02226 24.6025C7.56545 24.7647 8.57432 24.7435 9.07524 24.5532C9.87241 24.25 10.6132 23.2911 10.8601 22.2406C10.9095 22.0291 10.9801 21.74 11.0153 21.6061C11.0506 21.4721 11.0929 20.8093 11.1211 20.1395L11.1635 18.9268H9.60436H8.03817V19.8434V20.76H8.63782C9.06815 20.76 9.23747 20.7882 9.24456 20.8446C9.27276 21.2182 9.13873 21.9445 8.97645 22.2758C8.60962 23.0091 7.86176 23.1642 7.26915 22.6213C6.72596 22.1348 6.48605 21.1971 6.48605 19.5967C6.49314 17.7776 6.81765 16.6143 7.42439 16.2406C7.73477 16.0573 8.24273 16.0643 8.48966 16.2547C8.69427 16.4168 8.95529 16.8751 8.95529 17.0725C8.96233 17.3828 9.04699 17.3757 9.94299 17.0302C10.4227 16.8399 10.8319 16.6495 10.846 16.6072C10.8601 16.5649 10.7755 16.3182 10.6485 16.0573C10.0277 14.7318 8.99762 14.1818 7.45259 14.3511Z" fill="black"/>
<path d="M11.9184 19.5265V24.5676H13.8938H15.8692V23.6511V22.7416L14.8321 22.7204L13.7879 22.6993L13.7668 18.5888L13.7527 14.4854H12.8355H11.9184V19.5265Z" fill="black"/>
<path d="M16.6522 18.201C16.6522 20.2527 16.6804 22.1634 16.7086 22.4595C16.8356 23.6581 17.3929 24.3068 18.5641 24.6311C19.1003 24.7791 20.6029 24.7016 21.1179 24.4971C21.7105 24.2715 22.148 23.8132 22.3455 23.228C22.5007 22.7839 22.5007 22.6922 22.5007 18.6311V14.4854H21.5483H20.6029L20.5818 18.4478C20.5606 22.9319 20.5888 22.6851 19.9962 22.9178C19.3684 23.1505 18.8321 22.8543 18.6558 22.1705C18.5711 21.8532 18.55 21.0988 18.55 18.1305V14.4854H17.5976H16.6451L16.6522 18.201Z" fill="black"/>
<path d="M23.3473 15.402V16.3185H24.1233H24.8994V20.4431V24.5676H25.8518H26.8042V20.4431V16.3185H27.5802H28.3563V15.402V14.4854H25.8518H23.3473V15.402Z" fill="black"/>
<path d="M29.2029 19.5265V24.5676H31.1783H33.1537V23.6511V22.7416L32.1519 22.7204L31.143 22.6993V21.5711V20.4431L32.0108 20.4219L32.8715 20.4008V19.4912V18.5817L32.0108 18.5606L31.143 18.5394V17.4466V16.3538L32.1095 16.3326L33.076 16.3115L33.0972 15.402L33.1184 14.4854H31.1642H29.2029V19.5265Z" fill="black"/>
<path d="M34.0002 19.5265V24.5676H34.995H35.9897L35.9474 21.7968C35.9333 20.2809 35.9051 18.9554 35.8909 18.8567C35.8769 18.758 35.9051 18.6734 35.9404 18.6663C36.0179 18.6593 36.0814 18.8074 37.4431 22.241L38.3531 24.5324L39.2773 24.5535L40.2085 24.5747V19.5265V14.4854H39.2491H38.2967L38.3178 17.4466C38.332 19.6111 38.3179 20.3796 38.2614 20.3162C38.2191 20.2668 38.0357 19.8508 37.8522 19.3855C37.6688 18.9202 37.1538 17.6299 36.6952 16.5089L35.8769 14.4854H34.9385H34.0002V19.5265Z" fill="black"/>
<path d="M46.7696 22.4523C45.0694 22.6356 43.2986 23.5522 42.0781 24.8706C41.168 25.8436 40.5542 26.9999 40.2015 28.3748C40.0322 29.0516 40.018 29.2138 40.0322 30.3137C40.0463 31.3571 40.0745 31.6039 40.2368 32.2173C41.0128 35.1151 43.228 37.2091 46.2405 37.9C46.5791 37.9776 47.7502 37.9987 52.1666 37.9987C57.2955 37.9987 57.6834 37.9917 57.895 37.8718C58.2622 37.6744 58.6146 37.336 58.8194 36.9834C58.9887 36.7014 59.0099 36.5886 59.0099 36.0598C59.003 35.3689 58.876 35.0445 58.4316 34.6145C58.1067 34.3042 57.895 34.1844 57.4717 34.0857C57.2744 34.0434 55.2637 34.0152 52.1525 34.0152C47.1788 34.0081 47.1576 34.0081 46.692 33.853C45.7608 33.5357 45.0341 32.9576 44.5473 32.1468C44.1734 31.5263 44.0323 30.9834 44.0323 30.222C44.0323 29.1432 44.3639 28.3183 45.1117 27.5569C45.5703 27.0915 46.0147 26.8095 46.6214 26.5839C47.0024 26.4429 47.1858 26.4358 52.2724 26.4006L57.5284 26.3654L57.9305 26.168C59.4612 25.4206 59.3908 23.2138 57.8247 22.5299C57.486 22.3889 57.4082 22.3889 52.3571 22.3959C49.5351 22.3959 47.0236 22.4241 46.7696 22.4523Z" fill="black"/>
<path d="M4.79291 32.0407V37.1171H5.74532H6.69773L6.71186 35.0161L6.73303 32.9221L7.63602 32.9009L8.53203 32.8798V31.9702V31.0607L7.63602 31.0396L6.73303 31.0184V29.9256V28.8327L7.7066 28.8116L8.67309 28.7904V27.8809V26.9644H6.73303H4.79291V32.0407Z" fill="black"/>
<path d="M9.59027 32.0339V37.1173H10.578H11.5656V34.8259C11.5656 33.5638 11.5939 32.5344 11.6291 32.5344C11.6574 32.5344 11.7914 32.8094 11.9184 33.1478C12.0383 33.4933 12.2782 34.1349 12.4475 34.5791C12.6168 35.0233 12.8638 35.7071 13.0119 36.095C13.153 36.4827 13.2941 36.8705 13.3294 36.9551C13.3929 37.1102 13.4281 37.1173 14.3876 37.1173C14.9308 37.1173 15.3753 37.0891 15.3753 37.0608C15.3753 37.0256 15.2342 36.6378 15.0649 36.1936C14.8956 35.7495 14.6133 35.0091 14.437 34.5438C14.2606 34.0785 14.0207 33.4299 13.8937 33.1055L13.668 32.5062L13.8726 32.3652C14.564 31.8576 14.9238 31.2583 15.0296 30.4122C15.2554 28.6425 14.6204 27.5356 13.153 27.1267C12.9273 27.0632 12.2288 27.0138 11.1988 26.9857L9.59027 26.9434V32.0339ZM12.7579 28.854C13.3294 29.3123 13.3364 30.4263 12.772 30.9903C12.5604 31.2089 12.4475 31.2583 12.1159 31.3006C11.8972 31.3288 11.6856 31.3288 11.6432 31.3006C11.5939 31.2724 11.5656 30.7929 11.5656 29.9116V28.565L12.0454 28.6143C12.4122 28.6496 12.5745 28.706 12.7579 28.854Z" fill="black"/>
<path d="M16.2924 32.0407V37.1171H18.2678H20.2431V36.2006V35.284H19.2202H18.1972V34.1206V32.9573H19.0791H19.961V32.0407V31.1312L19.1002 31.1101L18.2325 31.0889L18.2113 29.9397L18.1972 28.7975H19.2202H20.2431V27.8809V26.9644H18.2678H16.2924V32.0407Z" fill="black"/>
<path d="M21.3719 32.0407V37.1171H23.3473H25.3227V36.2006V35.291L24.3209 35.2699L23.312 35.2487V34.1206V32.9926L24.1798 32.9714L25.0405 32.9503V32.0407V31.1242H24.1939C23.185 31.1242 23.2626 31.237 23.2908 29.8198L23.312 28.8327L24.3209 28.8116L25.3227 28.7904V27.8809V26.9644H23.3473H21.3719V32.0407Z" fill="black"/>
<path d="M68.0684 33.4086C68.0541 33.4297 67.9557 33.4579 67.8637 33.479C67.3769 33.5707 66.4879 34.3251 66.2837 34.8187C65.8604 35.8269 66.0366 36.821 66.7774 37.6107C66.9467 37.7869 67.2642 38.0266 67.4901 38.1395C67.8568 38.3228 67.9695 38.3439 68.5695 38.3439C69.3806 38.3439 69.7547 38.1888 70.2976 37.6459C70.8622 37.0889 71.0034 36.7294 71.0034 35.8833C71.0034 35.2487 70.9823 35.143 70.8056 34.7904C70.3331 33.8739 69.5288 33.3804 68.4917 33.3804C68.2732 33.3804 68.0827 33.3944 68.0684 33.4086ZM69.4018 34.1489C70.0087 34.4591 70.4743 35.1994 70.4743 35.841C70.4743 36.5601 70.0156 37.3004 69.3949 37.6036C69.0066 37.794 68.1176 37.8081 67.7721 37.6389C67.4546 37.4838 66.9536 36.9832 66.8409 36.7223C66.361 35.5872 66.9959 34.2476 68.1319 34.0078C68.506 33.9303 69.1055 33.9938 69.4018 34.1489Z" fill="black"/>
<path d="M67.6308 34.6286C67.6028 34.6498 67.5816 35.2068 67.5816 35.8625V37.0469H67.8991H68.2165V36.6239C68.2165 36.0669 68.3578 36.0599 68.7811 36.6239C69.0986 37.0328 69.0986 37.0399 69.4721 37.0399C69.67 37.0469 69.8394 37.0258 69.8319 36.9905C69.8319 36.9623 69.6626 36.7367 69.4584 36.49L69.0774 36.0317L69.3171 35.8131C69.6981 35.4535 69.6415 34.9106 69.2044 34.685C68.9928 34.5792 67.7229 34.5299 67.6308 34.6286ZM68.6753 35.0869C69.0065 35.2349 68.816 35.7074 68.4139 35.7074C68.2234 35.7074 68.2165 35.6932 68.2165 35.3548C68.2165 34.9671 68.3012 34.9177 68.6753 35.0869Z" fill="black"/>
<path d="M5.31497 42.9693C4.98339 43.0186 4.60242 43.2795 4.3555 43.6179C4.22146 43.8154 4.19324 43.9352 4.19324 44.4146C4.19324 45.0915 4.34844 45.4088 4.8564 45.726C5.22326 45.9657 5.80881 46.008 6.09101 45.8248C6.23918 45.726 6.26034 45.726 6.30267 45.8248C6.33087 45.9094 6.41553 45.9305 6.60602 45.9164L6.87412 45.8953L6.89529 45.1338L6.91645 44.3794H6.345H5.78059V44.6262C5.78059 44.8588 5.7947 44.8729 6.03457 44.8729C6.35908 44.8729 6.32384 44.9999 5.96402 45.1831C5.39257 45.4652 4.89873 45.1056 4.90578 44.4288C4.91989 43.7589 5.34319 43.4064 5.87936 43.632C6.02046 43.6885 6.15452 43.7871 6.17568 43.8506C6.23918 44.0057 6.345 43.9775 6.61305 43.7519L6.84587 43.5545L6.56369 43.3006C6.21092 42.9834 5.83703 42.8847 5.31497 42.9693Z" fill="black"/>
<path d="M24.3632 42.9623C23.9963 43.0258 23.6648 43.2655 23.4108 43.6603C23.2415 43.9353 23.2062 44.0552 23.2062 44.45C23.2062 44.8589 23.2344 44.9647 23.4249 45.2467C23.8411 45.8812 24.6242 46.121 25.1675 45.7896C25.3932 45.6486 25.3932 45.6486 25.3932 45.7896C25.3932 45.9095 25.4426 45.9306 25.6754 45.9306H25.9576V45.155V44.3795H25.3932H24.8288V44.6262C24.8288 44.8659 24.8359 44.873 25.1251 44.873C25.4073 44.873 25.4143 44.8801 25.2944 45.007C24.9417 45.3947 24.3702 45.3736 24.0881 44.9576C23.6436 44.309 24.1516 43.4136 24.857 43.611C24.9911 43.6462 25.1533 43.7449 25.2098 43.8295L25.3156 43.9705L25.5625 43.8155C25.7036 43.7308 25.8165 43.6251 25.8165 43.5757C25.8165 43.4347 25.372 43.054 25.1675 43.0117C24.7724 42.9271 24.6454 42.92 24.3632 42.9623Z" fill="black"/>
<path d="M7.55844 44.4287L7.5796 45.8952H7.93237H8.28508L8.30624 45.3523L8.32741 44.8094L8.83536 44.7883L9.34331 44.7671L9.36448 44.4639L9.38564 44.1678H8.85652H8.32037V43.8858V43.6038H8.95531H9.59025V43.2865V42.9692H8.56731H7.54431L7.55844 44.4287Z" fill="black"/>
<path d="M10.5003 43.1949C9.69607 43.8153 9.65374 44.9082 10.4086 45.5709C10.7331 45.86 10.9236 45.9305 11.3469 45.9305C11.7702 45.9305 12.1018 45.7965 12.3699 45.5145C12.6027 45.2748 12.5674 45.162 12.1864 45.0068C12.003 44.9293 11.9607 44.9363 11.8901 45.028C11.7702 45.1902 11.5303 45.2959 11.2834 45.2959C11.0083 45.2959 10.6555 44.9505 10.6344 44.6684C10.5991 44.0691 10.7261 43.7871 11.0788 43.6461C11.3258 43.5474 11.3892 43.5474 11.5938 43.632C11.7279 43.6884 11.8619 43.7871 11.9042 43.8576C11.9677 43.9775 11.9889 43.9704 12.2287 43.8083C12.3699 43.7166 12.4827 43.6038 12.4827 43.5615C12.4827 43.4698 12.1512 43.1596 11.9395 43.0468C11.8549 43.0045 11.5656 42.9692 11.2905 42.9692C10.846 42.9692 10.7755 42.9904 10.5003 43.1949Z" fill="black"/>
<path d="M13.7173 43.1032C12.8214 43.6602 12.6379 44.746 13.3152 45.4581C14.063 46.2477 15.34 46.008 15.7562 44.9998C15.9044 44.6614 15.8973 44.1537 15.7562 43.8647C15.608 43.5756 15.2553 43.1948 15.0084 43.0679C14.7262 42.9199 13.9784 42.941 13.7173 43.1032ZM14.7967 43.7236C15.3541 44.0691 15.1848 45.1479 14.5569 45.2677C14.183 45.3382 13.9008 45.1831 13.7385 44.8235C13.5269 44.3441 13.6962 43.8224 14.1406 43.632C14.3664 43.5333 14.5357 43.5544 14.7967 43.7236Z" fill="black"/>
<path d="M18.0915 43.054C17.8304 43.195 17.4142 43.6392 17.3084 43.8789C17.0896 44.4077 17.2589 45.1621 17.6964 45.5429C18.028 45.839 18.2537 45.9306 18.6699 45.9306C19.2555 45.9306 19.7917 45.5922 20.0104 45.0846C20.1303 44.7884 20.1444 44.1469 20.0315 43.8507C19.9398 43.5969 19.573 43.2091 19.3119 43.0681C19.0862 42.9482 18.296 42.9412 18.0915 43.054ZM19.1003 43.6744C19.1074 43.6744 19.1779 43.7802 19.2555 43.9001C19.4248 44.175 19.4389 44.6545 19.2908 44.9365C19.0791 45.3525 18.3948 45.3948 18.1126 45.007C17.654 44.3936 18.1761 43.4136 18.8534 43.611C18.9804 43.6462 19.0862 43.6744 19.1003 43.6744Z" fill="black"/>
<path d="M20.5254 44.4569V45.9375L20.864 45.9163L21.1956 45.8952L21.2167 45.4157C21.2379 44.9504 21.2379 44.9434 21.4284 44.9434C21.5907 44.9504 21.6682 45.028 21.901 45.4228L22.1833 45.8952L22.5572 45.9163C23.0087 45.9445 23.0087 45.9093 22.6418 45.2959L22.3667 44.8376L22.536 44.6613C22.8887 44.2736 22.9381 43.9774 22.7124 43.5332C22.4655 43.0468 22.275 42.9692 21.3437 42.9692H20.5254V44.4569ZM21.9998 43.7025C22.0492 43.7589 22.0775 43.914 22.0633 44.0409C22.0422 44.2736 22.0422 44.2735 21.64 44.2947L21.2309 44.3159V43.9563V43.6037H21.5765C21.7882 43.6037 21.9505 43.639 21.9998 43.7025Z" fill="black"/>
<path d="M16.2359 45.557C16.2571 45.8954 16.2571 45.8954 16.5249 45.9166L16.7857 45.9377V45.5852V45.2256H16.4967H16.2148L16.2359 45.557Z" fill="black"/>
</g>
<defs>
<clipPath id="clip0_43_22">
<rect width="70.214" height="45" fill="white" transform="translate(0.806885 0.983398)"/>
</clipPath>
</defs>
</svg>
