<svg width="91" height="68" viewBox="0 0 91 68" fill="none" xmlns="http://www.w3.org/2000/svg">
<g clip-path="url(#clip0_43_61)">
<path d="M88.6371 41.4532H26.8789C29.1759 27.9932 35.9867 15.7532 44.3321 4.99316C40.1293 6.90316 34.7629 12.6532 30.0385 19.1932C29.9583 19.3832 29.858 19.5532 29.7677 19.7332C31.0416 16.9932 32.0446 13.8332 31.4729 10.9932C31.1018 8.99316 26.3974 8.82316 23.1375 16.4332C21.4022 12.5632 18.7842 8.56316 15.113 6.43316C13.0468 5.20316 8.42266 6.63316 13.2373 17.5432C13.2373 17.5432 11.0105 21.3832 13.5483 23.7932C17.2596 27.3332 20.6499 25.8832 24.8628 26.4032C24.7547 26.588 24.6912 26.7953 24.6772 27.0087C24.6633 27.2222 24.6994 27.436 24.7825 27.6332C24.7825 27.6332 24.7825 27.5832 24.7324 27.5532C23.1671 30.2463 21.8026 33.0505 20.6499 35.9432C18.3329 29.9432 12.8863 24.9432 5.76456 22.2732C11.492 29.1932 15.0328 34.8932 16.4973 41.5232H2.45447V54.9932H88.6371V41.4532ZM15.414 44.2732L15.2134 44.7632L11.9835 52.8832H10.6194L7.2892 44.2732H9.06461L11.3215 50.5132L13.6686 44.2732H15.414ZM23.7795 17.6132C25.8959 11.9732 29.4066 11.8332 29.5771 13.8832C29.9483 18.2432 26.6382 23.7132 25.8658 24.8832C25.4104 22.405 24.6943 19.9816 23.7293 17.6532V17.5732L23.7795 17.6132ZM24.8628 25.6632C22.3752 24.5832 19.2858 25.0932 16.9085 23.9832C13.1069 22.2132 15.5845 18.2332 15.5845 18.2332C12.2744 10.8032 14.9325 9.99316 16.4872 10.9332C22.6159 14.6432 25.7655 26.0432 24.8628 25.6632ZM25.6251 52.8432H19.697V44.2732H25.4345V45.7632H21.2618V47.7632H25.1436V49.2532H21.2618V51.3932H25.6351V52.8832L25.6251 52.8432ZM37.08 52.8432H35.1742L33.0979 49.2432H32.2152V52.8332H30.6504V44.2632H33.7599C34.1934 44.26 34.6243 44.3311 35.0338 44.4732H35.1942C35.4771 44.5905 35.7331 44.764 35.9465 44.9832L36.0769 45.1232C36.2345 45.3261 36.3597 45.5521 36.4481 45.7932C36.4538 45.8463 36.4538 45.9 36.4481 45.9532C36.5197 46.2002 36.5568 46.456 36.5584 46.7132C36.5558 46.9931 36.5049 47.2705 36.4079 47.5332C36.3918 47.5718 36.3716 47.6087 36.3478 47.6432C36.2604 47.8581 36.1384 48.0574 35.9867 48.2332C35.9867 48.2932 35.8563 48.3432 35.7961 48.4032C35.6591 48.5361 35.5077 48.6535 35.3447 48.7532C35.137 48.8745 34.9145 48.9686 34.6827 49.0332L37.0599 52.8832L37.08 52.8432ZM43.1485 52.8432H41.6038V44.2732H43.1686L43.1485 52.8432ZM54.2824 45.7232H50.2702V47.8232H54.0216V49.3132H50.2702V52.8432H48.7054V44.2732H54.3025L54.2824 45.7232ZM60.7521 52.8432H59.2074V44.2732H60.7722L60.7521 52.8432ZM72.2171 52.8432H66.289V44.2732H72.0265V45.7632H67.8538V47.7632H71.7356V49.2532H67.8538V51.3932H72.2271V52.8832L72.2171 52.8432ZM84.5146 49.1132C84.423 49.9638 84.073 50.7662 83.5115 51.4132C83.5115 51.4132 83.5115 51.4732 83.5115 51.4932C83.1696 51.8082 82.7804 52.068 82.358 52.2632C82.2514 52.3389 82.141 52.409 82.027 52.4732C81.3881 52.722 80.7067 52.8443 80.0209 52.8332H77.0318V44.2732H80.1212C80.7659 44.2738 81.4051 44.3924 82.0069 44.6232C82.1575 44.6819 82.3049 44.7486 82.4483 44.8232C82.7989 44.9993 83.1175 45.2325 83.3911 45.5132C83.4896 45.598 83.5834 45.6881 83.672 45.7832C83.9456 46.125 84.1592 46.5104 84.3039 46.9232C84.3541 47.0632 84.3842 47.1932 84.4243 47.3332C84.5415 47.7365 84.6056 48.1533 84.6149 48.5732C84.6179 48.7694 84.5908 48.965 84.5346 49.1532" fill="black"/>
<path d="M82.8696 47.6736C82.7857 47.3756 82.6498 47.0947 82.4683 46.8436L82.4082 46.7636C82.1849 46.4845 81.9045 46.2561 81.5856 46.0936H81.4653C81.0172 45.8951 80.5312 45.7962 80.0409 45.8036H78.6066V51.4336H79.7801C80.1806 51.4311 80.5789 51.3739 80.9637 51.2636C81.1698 51.1942 81.3681 51.1037 81.5556 50.9936C81.7088 50.9292 81.8564 50.8523 81.9969 50.7636C82.1799 50.6078 82.3388 50.4258 82.4683 50.2236C82.5715 50.1237 82.6594 50.0091 82.7291 49.8836C82.9145 49.4964 83.0105 49.0727 83.01 48.6436C83.0043 48.3703 82.9673 48.0985 82.8997 47.8336C82.8997 47.8336 82.8997 47.7836 82.8997 47.7536" fill="black"/>
<path d="M34.9736 46.7836C34.9784 46.604 34.9406 46.4259 34.8633 46.2636C34.8251 46.2004 34.7778 46.1431 34.7229 46.0936C34.6771 46.0331 34.6231 45.9792 34.5624 45.9336C34.4922 45.8959 34.4182 45.8657 34.3417 45.8436C34.2535 45.8077 34.163 45.7776 34.0709 45.7536C33.8889 45.7201 33.7042 45.7033 33.5192 45.7036H32.2152V47.8736H33.469C33.6713 47.8766 33.8732 47.8565 34.0709 47.8136C34.1598 47.7896 34.2469 47.7596 34.3317 47.7236C34.4118 47.6983 34.4891 47.6648 34.5624 47.6236C34.6231 47.578 34.6771 47.5242 34.7229 47.4636C34.775 47.4116 34.822 47.3546 34.8633 47.2936C34.9405 47.1384 34.9784 46.9668 34.9736 46.7936" fill="black"/>
<path d="M5.96518 58.7936C5.81963 58.6563 5.64472 58.5537 5.45362 58.4936C5.20775 58.411 4.94761 58.379 4.68898 58.3996C4.43034 58.4203 4.17861 58.4931 3.94904 58.6136C3.74703 58.7205 3.57735 58.8793 3.45754 59.0736V58.5036H2.56482V62.8636H3.45754V60.6236C3.45199 60.5504 3.45199 60.4768 3.45754 60.4036C3.47265 60.1589 3.54847 59.9218 3.67821 59.7136C3.67821 59.7136 3.67821 59.6036 3.75846 59.5636C3.79947 59.5302 3.84307 59.5001 3.88886 59.4736C4.03976 59.3633 4.21533 59.2912 4.40041 59.2636C4.45715 59.2588 4.5142 59.2588 4.57093 59.2636C4.63772 59.2587 4.70476 59.2587 4.77155 59.2636C4.87677 59.2852 4.97818 59.3222 5.07246 59.3736C5.13024 59.3995 5.18423 59.4332 5.23295 59.4736C5.26655 59.5179 5.29672 59.5647 5.32323 59.6136C5.40955 59.7571 5.46426 59.9173 5.48372 60.0836C5.48927 60.1535 5.48927 60.2237 5.48372 60.2936V62.8636H6.37644V60.0736C6.38416 59.8174 6.33981 59.5623 6.24604 59.3236C6.19692 59.1268 6.10053 58.9449 5.96518 58.7936Z" fill="black"/>
<path d="M11.793 59.0632C11.4614 58.7411 11.0424 58.523 10.5877 58.436C10.1331 58.3489 9.66286 58.3966 9.23516 58.5732C8.95854 58.6876 8.70655 58.854 8.4929 59.0632C8.28568 59.2707 8.11901 59.5149 8.00141 59.7832C7.87923 60.0639 7.81771 60.3672 7.82085 60.6732C7.81866 60.9823 7.88011 61.2887 8.00141 61.5732C8.11641 61.8459 8.28331 62.0938 8.4929 62.3032C8.70747 62.5113 8.95923 62.6775 9.23516 62.7932C9.81987 63.0332 10.476 63.0332 11.0607 62.7932C11.3357 62.6811 11.5848 62.5144 11.793 62.3032C12.0025 62.0938 12.1695 61.8459 12.2845 61.5732C12.4058 61.2887 12.4672 60.9823 12.465 60.6732C12.4682 60.3672 12.4066 60.0639 12.2845 59.7832C12.1668 59.5149 12.0002 59.2707 11.793 59.0632ZM11.4218 61.2632C11.362 61.4324 11.27 61.5886 11.151 61.7232C11.026 61.8477 10.88 61.9492 10.7197 62.0232C10.3528 62.17 9.94313 62.17 9.5762 62.0232C9.41185 61.9564 9.2645 61.8539 9.14489 61.7232C9.02029 61.5927 8.92761 61.4353 8.87406 61.2632C8.80908 61.0732 8.77521 60.874 8.77376 60.6732C8.77038 60.472 8.80439 60.272 8.87406 60.0832C8.93394 59.914 9.02588 59.7578 9.14489 59.6232C9.26988 59.4987 9.41588 59.3972 9.5762 59.3232C9.94313 59.1763 10.3528 59.1763 10.7197 59.3232C10.884 59.39 11.0314 59.4925 11.151 59.6232C11.2756 59.7537 11.3683 59.9111 11.4218 60.0832C11.4868 60.2732 11.5207 60.4724 11.5221 60.6732C11.5174 60.8736 11.4836 61.0724 11.4218 61.2632Z" fill="black"/>
<path d="M17.2797 58.7934C17.1315 58.6596 16.9574 58.5575 16.7681 58.4934C16.5748 58.4255 16.3712 58.3916 16.1663 58.3934C15.8541 58.3838 15.5453 58.4599 15.2736 58.6134C15.0716 58.7203 14.9019 58.8791 14.7821 59.0734V58.5034H13.8893V62.8634H14.7821V60.6234C14.7772 60.5501 14.7772 60.4766 14.7821 60.4034C14.7972 60.1587 14.873 59.9216 15.0027 59.7134C15.0027 59.7134 15.0529 59.6034 15.083 59.5634C15.124 59.53 15.1676 59.4999 15.2134 59.4734C15.3643 59.363 15.5399 59.291 15.7249 59.2634C15.7817 59.2585 15.8387 59.2585 15.8955 59.2634C15.9589 59.2578 16.0226 59.2578 16.086 59.2634C16.1885 59.2834 16.2869 59.3206 16.3769 59.3734C16.4359 59.3971 16.4902 59.4309 16.5374 59.4734C16.571 59.5177 16.6012 59.5645 16.6277 59.6134C16.714 59.7569 16.7687 59.9171 16.7882 60.0834C16.7937 60.1533 16.7937 60.2235 16.7882 60.2934V62.8634H17.6809V60.0734C17.6886 59.8172 17.6443 59.5621 17.5505 59.3234C17.4813 59.1243 17.3682 58.9432 17.2195 58.7934" fill="black"/>
<path d="M23.0171 59.0635C22.857 58.8571 22.6463 58.6952 22.4053 58.5935C22.1355 58.4671 21.8408 58.4022 21.5426 58.4035C21.2291 58.3994 20.9182 58.4607 20.6299 58.5835C20.364 58.6961 20.1248 58.8631 19.9277 59.0735C19.7338 59.2873 19.5808 59.5347 19.4763 59.8035C19.3753 60.0894 19.3244 60.3904 19.3259 60.6935C19.3193 60.9988 19.3774 61.3021 19.4964 61.5835C19.6008 61.8487 19.7577 62.0902 19.9578 62.2935C20.1557 62.4981 20.3951 62.6584 20.66 62.7635C20.9436 62.8774 21.2469 62.9351 21.5527 62.9335C21.8508 62.9349 22.1455 62.87 22.4153 62.7435C22.6639 62.6305 22.8759 62.4504 23.0272 62.2235V62.7635C23.0285 62.9426 23.0049 63.121 22.957 63.2935C22.9096 63.4618 22.8276 63.6185 22.7162 63.7535C22.5873 63.8946 22.4301 64.007 22.2548 64.0835C22.0216 64.1741 21.7728 64.2183 21.5226 64.2135C21.2393 64.2172 20.9586 64.1592 20.7001 64.0435C20.4464 63.9164 20.2185 63.7435 20.028 63.5335L19.4262 64.2835C19.7127 64.5563 20.0548 64.7644 20.4292 64.8935C20.7993 65.0087 21.1851 65.0661 21.5727 65.0635C21.9138 65.0672 22.253 65.0131 22.5758 64.9035C22.8533 64.7986 23.1085 64.6425 23.3281 64.4435C23.5381 64.2443 23.7024 64.0021 23.8096 63.7335C23.9238 63.4472 23.9817 63.1416 23.9801 62.8335V58.5335H23.0171V59.0635ZM22.656 61.6935C22.5236 61.8216 22.3664 61.9214 22.1939 61.9868C22.0214 62.0521 21.8373 62.0817 21.653 62.0735C21.4685 62.0829 21.2841 62.0539 21.1114 61.9885C20.9388 61.9231 20.7816 61.8226 20.6499 61.6935C20.4006 61.4209 20.2675 61.0623 20.2788 60.6935C20.2754 60.4924 20.3094 60.2923 20.3791 60.1035C20.4348 59.9324 20.5272 59.7754 20.6499 59.6435C20.7731 59.517 20.9196 59.4151 21.0812 59.3435C21.4482 59.1967 21.8578 59.1967 22.2247 59.3435C22.3891 59.4103 22.5364 59.5128 22.656 59.6435C22.7806 59.774 22.8733 59.9314 22.9269 60.1035C22.9918 60.2935 23.0257 60.4928 23.0272 60.6935C23.0343 61.0616 22.9018 61.4187 22.656 61.6935Z" fill="black"/>
<path d="M31.9343 58.9933C31.8032 58.8065 31.6274 58.6552 31.4228 58.5533C31.1628 58.4314 30.8774 58.3731 30.5903 58.3833C30.3142 58.388 30.0429 58.4564 29.7978 58.5833C29.5571 58.7065 29.3582 58.8978 29.2261 59.1333C29.1017 58.9121 28.9264 58.7236 28.7145 58.5833C28.465 58.44 28.1797 58.3707 27.892 58.3833C27.7075 58.3806 27.524 58.4111 27.3504 58.4733C27.2001 58.5292 27.0556 58.5995 26.9191 58.6833C26.8081 58.7568 26.7069 58.8442 26.6181 58.9433C26.5818 58.9782 26.5513 59.0187 26.5279 59.0633V58.4933H25.6853V62.8533H26.578V60.5933C26.5725 60.5167 26.5725 60.4399 26.578 60.3633C26.5945 60.1297 26.6667 59.9034 26.7887 59.7033C26.7887 59.7033 26.8388 59.5933 26.8689 59.5533C26.9107 59.5135 26.958 59.4799 27.0093 59.4533C27.1368 59.3518 27.2892 59.2862 27.4507 59.2633C27.5074 59.2585 27.5645 59.2585 27.6212 59.2633C27.7781 59.2535 27.9346 59.2881 28.0726 59.3633C28.181 59.4298 28.2708 59.5227 28.3334 59.6333C28.3972 59.7655 28.4379 59.9075 28.4537 60.0533C28.4648 60.2398 28.4648 60.4268 28.4537 60.6133V62.8933H29.3465V60.4833C29.3318 60.1612 29.4195 59.8427 29.5972 59.5733C29.6929 59.4529 29.8175 59.3585 29.9596 59.2991C30.1017 59.2396 30.2565 59.217 30.4097 59.2333C30.5698 59.2237 30.7294 59.2583 30.8711 59.3333C30.9799 59.3985 31.0725 59.4874 31.1419 59.5933C31.2076 59.7113 31.2518 59.8399 31.2723 59.9733C31.2826 60.1265 31.2826 60.2801 31.2723 60.4333V62.8533H32.1651V60.3233C32.1671 60.0848 32.1435 59.8468 32.0948 59.6133C32.0535 59.3951 31.9682 59.1876 31.8441 59.0033" fill="black"/>
<path d="M37.6417 59.0632C37.43 58.8563 37.1817 58.6902 36.9095 58.5732C36.4805 58.3944 36.0082 58.3456 35.5516 58.4327C35.0949 58.5198 34.6741 58.7391 34.3417 59.0632C34.1344 59.2707 33.9678 59.5149 33.8502 59.7832C33.728 60.0639 33.6665 60.3672 33.6696 60.6732C33.6674 60.9823 33.7289 61.2886 33.8502 61.5732C33.9652 61.8459 34.1321 62.0938 34.3417 62.3032C34.5542 62.509 34.8023 62.675 35.0739 62.7932C35.6586 63.0332 36.3147 63.0332 36.8995 62.7932C37.1744 62.6811 37.4235 62.5144 37.6317 62.3032C37.8413 62.0938 38.0082 61.8459 38.1232 61.5732C38.2445 61.2886 38.3059 60.9823 38.3037 60.6732C38.3031 60.0708 38.0654 59.4927 37.6417 59.0632ZM37.2706 61.2632C37.2068 61.4305 37.1152 61.586 36.9998 61.7232C36.8748 61.8476 36.7288 61.9492 36.5684 62.0232C36.2015 62.17 35.7919 62.17 35.425 62.0232C35.2606 61.9564 35.1133 61.8539 34.9936 61.7232C34.869 61.5927 34.7764 61.4352 34.7228 61.2632C34.6578 61.0731 34.624 60.8739 34.6225 60.6732C34.6191 60.472 34.6531 60.272 34.7228 60.0832C34.7827 59.914 34.8746 59.7578 34.9936 59.6232C35.1186 59.4987 35.2646 59.3972 35.425 59.3232C35.7919 59.1763 36.2015 59.1763 36.5684 59.3232C36.7328 59.39 36.8801 59.4924 36.9998 59.6232C37.1244 59.7537 37.217 59.9111 37.2706 60.0832C37.3356 60.2732 37.3694 60.4724 37.3709 60.6732C37.3711 60.8741 37.3372 61.0736 37.2706 61.2632Z" fill="black"/>
<path d="M43.8808 59.0535C43.6836 58.843 43.4444 58.6761 43.1786 58.5635C42.8903 58.4407 42.5794 58.3793 42.2658 58.3835C41.9683 58.3879 41.6749 58.4526 41.4032 58.5735C41.1657 58.6811 40.9563 58.842 40.7913 59.0435V58.4835H39.8986V65.3835H40.7913V62.2835C40.9471 62.4861 41.1503 62.6475 41.3831 62.7535C41.6589 62.8844 41.9604 62.9527 42.2658 62.9535C42.5782 62.9559 42.8882 62.8982 43.1786 62.7835C43.4419 62.6709 43.6805 62.5078 43.8808 62.3035C44.0768 62.0913 44.23 61.8434 44.3321 61.5735C44.4373 61.285 44.4916 60.9805 44.4926 60.6735C44.5008 60.0759 44.2823 59.4973 43.8808 59.0535ZM43.4394 61.2635C43.3756 61.4309 43.284 61.5864 43.1686 61.7235C43.0436 61.848 42.8976 61.9495 42.7373 62.0235C42.3703 62.1704 41.9607 62.1704 41.5938 62.0235C41.4294 61.9567 41.2821 61.8542 41.1625 61.7235C41.0379 61.593 40.9452 61.4356 40.8916 61.2635C40.8267 61.0735 40.7928 60.8743 40.7913 60.6735C40.788 60.4723 40.822 60.2723 40.8916 60.0835C40.9474 59.9124 41.0398 59.7554 41.1625 59.6235C41.2875 59.499 41.4335 59.3975 41.5938 59.3235C41.9607 59.1766 42.3703 59.1766 42.7373 59.3235C42.9016 59.3903 43.049 59.4928 43.1686 59.6235C43.2932 59.754 43.3859 59.9114 43.4394 60.0835C43.5044 60.2735 43.5383 60.4727 43.5397 60.6735C43.5392 60.8743 43.5053 61.0737 43.4394 61.2635Z" fill="black"/>
<path d="M48.1838 58.4535H48.0534H47.923C47.8328 58.4535 47.7425 58.4535 47.6522 58.4535C47.5188 58.4903 47.3907 58.5441 47.2711 58.6135C47.1566 58.6825 47.052 58.7666 46.9601 58.8635C46.8978 58.9325 46.8408 59.006 46.7896 59.0835V58.5035H45.8868V62.8635H46.7796V60.6735C46.7485 60.3125 46.8601 59.9537 47.0905 59.6735C47.2076 59.5625 47.3465 59.4767 47.4983 59.4216C47.6502 59.3666 47.8119 59.3434 47.9732 59.3535H48.1638H48.3644V58.3535C48.2942 58.3535 48.2039 58.3535 48.1237 58.3535" fill="black"/>
<path d="M53.1089 59.0632C52.7773 58.7411 52.3583 58.523 51.9036 58.436C51.449 58.3489 50.9788 58.3966 50.5511 58.5732C50.2761 58.6853 50.027 58.852 49.8188 59.0632C49.6116 59.2707 49.4449 59.5149 49.3273 59.7832C49.2052 60.0639 49.1436 60.3672 49.1468 60.6732C49.1446 60.9823 49.206 61.2887 49.3273 61.5732C49.4423 61.8459 49.6092 62.0938 49.8188 62.3032C50.0314 62.509 50.2795 62.675 50.5511 62.7932C51.1358 63.0332 51.7919 63.0332 52.3766 62.7932C52.6516 62.6811 52.9007 62.5144 53.1089 62.3032C53.3184 62.0938 53.4854 61.8459 53.6004 61.5732C53.7217 61.2887 53.7831 60.9823 53.7809 60.6732C53.782 60.3737 53.7231 60.0771 53.6077 59.8006C53.4923 59.5242 53.3227 59.2735 53.1089 59.0632ZM52.7377 61.2632C52.6779 61.4324 52.5859 61.5886 52.4669 61.7232C52.3419 61.8477 52.1959 61.9492 52.0356 62.0232C51.6687 62.17 51.259 62.17 50.8921 62.0232C50.7277 61.9564 50.5804 61.8539 50.4608 61.7232C50.3362 61.5927 50.2435 61.4353 50.19 61.2632C50.125 61.0732 50.0911 60.874 50.0897 60.6732C50.0863 60.472 50.1203 60.272 50.19 60.0832C50.2538 59.9158 50.3453 59.7603 50.4608 59.6232C50.5858 59.4987 50.7318 59.3972 50.8921 59.3232C51.259 59.1763 51.6687 59.1763 52.0356 59.3232C52.1999 59.39 52.3473 59.4925 52.4669 59.6232C52.5915 59.7537 52.6842 59.9111 52.7377 60.0832C52.8027 60.2732 52.8366 60.4724 52.838 60.6732C52.8414 60.8743 52.8074 61.0744 52.7377 61.2632Z" fill="black"/>
<path d="M55.2454 63.3932C55.2539 63.601 55.209 63.8075 55.115 63.9932C55.0669 64.0606 55.0014 64.1138 54.9255 64.1472C54.8496 64.1807 54.766 64.1931 54.6837 64.1832H54.5232H54.3627H54.3125L54.2122 65.0132C54.3001 65.0426 54.3909 65.0627 54.483 65.0732H54.7539C55.0279 65.0898 55.3006 65.0235 55.5363 64.8832C55.7076 64.7756 55.8464 64.6235 55.9375 64.4432C56.0165 64.2759 56.0674 64.0969 56.0879 63.9132C56.0966 63.77 56.0966 63.6264 56.0879 63.4832V58.4932H55.1952V63.3932H55.2454Z" fill="black"/>
<path d="M55.6968 56.3736C55.6124 56.3725 55.5288 56.3889 55.4512 56.4216C55.3735 56.4543 55.3034 56.5026 55.2454 56.5636C55.1247 56.6826 55.0561 56.8444 55.0548 57.0136C55.0537 57.0976 55.0701 57.181 55.1029 57.2584C55.1357 57.3359 55.1842 57.4057 55.2454 57.4636C55.3038 57.5241 55.3739 57.5721 55.4515 57.6048C55.5291 57.6374 55.6125 57.654 55.6968 57.6536C55.7811 57.6546 55.8647 57.6383 55.9424 57.6056C56.02 57.5729 56.0901 57.5246 56.1481 57.4636C56.2688 57.3446 56.3374 57.1828 56.3387 57.0136C56.3361 56.8446 56.2677 56.6834 56.1478 56.5639C56.028 56.4444 55.8662 56.3762 55.6968 56.3736Z" fill="black"/>
<path d="M61.6048 59.1233C61.4289 58.8972 61.2021 58.7156 60.9427 58.5933C60.6297 58.4463 60.2854 58.3776 59.9397 58.3933C59.6295 58.3903 59.3221 58.4516 59.0369 58.5733C58.7719 58.6882 58.5305 58.851 58.3248 59.0533C58.119 59.2618 57.9585 59.5103 57.8533 59.7833C57.74 60.0699 57.6822 60.3753 57.6828 60.6833C57.6798 60.9898 57.7307 61.2944 57.8333 61.5833C57.929 61.8563 58.083 62.1054 58.2846 62.3133C58.4845 62.5227 58.7274 62.6865 58.9968 62.7933C59.4911 62.9829 60.0321 63.0154 60.5456 62.8865C61.0592 62.7576 61.5202 62.4736 61.8656 62.0733L61.1935 61.5533C61.0518 61.7322 60.8826 61.8874 60.692 62.0133C60.4978 62.1279 60.2756 62.1867 60.05 62.1833C59.869 62.1834 59.6892 62.153 59.5184 62.0933C59.3538 62.0383 59.2008 61.9535 59.067 61.8433C58.9404 61.7432 58.8365 61.6175 58.7621 61.4744C58.6878 61.3313 58.6447 61.1742 58.6357 61.0133H62.1364V60.6933C62.1365 60.4123 62.096 60.1328 62.016 59.8633C61.9395 59.5958 61.8136 59.3449 61.6449 59.1233H61.6048ZM58.6357 60.2933C58.6369 60.1615 58.6677 60.0316 58.726 59.9133C58.7903 59.7696 58.8785 59.6378 58.9868 59.5233C59.1028 59.4024 59.2429 59.307 59.398 59.2433C59.5657 59.1704 59.7467 59.133 59.9297 59.1333C59.9999 59.1333 60.05 59.1333 60.1202 59.1333C60.3276 59.1524 60.5255 59.2286 60.692 59.3533C60.692 59.3533 60.7923 59.3533 60.8224 59.4433C60.8614 59.4965 60.8949 59.5535 60.9227 59.6133C61.0162 59.7616 61.0745 59.9292 61.0932 60.1033C61.0971 60.1566 61.0971 60.21 61.0932 60.2633L58.6357 60.2933Z" fill="black"/>
<path d="M64.3532 59.6832C64.4568 59.5436 64.595 59.4333 64.7544 59.3632C64.9329 59.2792 65.1288 59.2381 65.3261 59.2432C65.5267 59.2384 65.7257 59.2794 65.9079 59.3632C66.0833 59.4485 66.2401 59.5674 66.3693 59.7132L67.0413 59.1032C66.8313 58.8731 66.5702 58.695 66.279 58.5832C65.9875 58.4721 65.6783 58.4145 65.3662 58.4132C65.0473 58.4107 64.7308 58.4683 64.4334 58.5832C64.1626 58.6882 63.9167 58.8483 63.7112 59.0532C63.5059 59.2601 63.3485 59.5093 63.2498 59.7832C63.0223 60.379 63.0223 61.0374 63.2498 61.6332C63.3552 61.9031 63.5157 62.1483 63.7212 62.3532C63.9273 62.5549 64.1732 62.7116 64.4434 62.8132C64.7376 62.927 65.0507 62.9847 65.3662 62.9832C65.6746 62.987 65.9809 62.9327 66.269 62.8232C66.5613 62.7188 66.8207 62.5394 67.0213 62.3032L66.3894 61.6732C66.2666 61.8174 66.1166 61.9363 65.948 62.0232C65.7695 62.1071 65.5736 62.1482 65.3763 62.1432C65.1868 62.1445 64.999 62.1071 64.8246 62.0332C64.6648 61.9635 64.5213 61.8613 64.4033 61.7332C64.2831 61.6032 64.1909 61.4501 64.1325 61.2832C64.0636 61.1081 64.0295 60.9212 64.0322 60.7332C64.0319 60.5429 64.0624 60.3538 64.1225 60.1732C64.1718 59.9965 64.2534 59.8303 64.3632 59.6832" fill="black"/>
<path d="M70.1608 62.1034H69.8699C69.754 62.1109 69.6386 62.083 69.5389 62.0234C69.4614 61.973 69.4018 61.8995 69.3684 61.8134C69.3286 61.718 69.3049 61.6166 69.2982 61.5134C69.2982 61.4034 69.2982 61.2834 69.2982 61.1534V59.2534H70.4718V58.4734H69.3183V57.2734H68.4255V58.4734H67.4827V59.2534H68.4255V61.4434C68.4255 61.6134 68.4255 61.7934 68.4255 61.9634C68.4371 62.133 68.4887 62.2975 68.576 62.4434C68.6682 62.5966 68.8045 62.7186 68.9672 62.7934C69.205 62.8926 69.4621 62.937 69.7195 62.9234H70.0806C70.2179 62.9107 70.351 62.8698 70.4718 62.8034V61.9934H70.4116C70.3355 62.0517 70.2457 62.0896 70.1508 62.1034" fill="black"/>
<path d="M72.5982 61.6432C72.5139 61.6421 72.4303 61.6585 72.3526 61.6912C72.275 61.7239 72.2049 61.7722 72.1469 61.8332C72.0262 61.9522 71.9576 62.114 71.9563 62.2832C71.9552 62.3672 71.9716 62.4506 72.0044 62.528C72.0372 62.6055 72.0857 62.6753 72.1469 62.7332C72.2053 62.7937 72.2754 62.8417 72.353 62.8744C72.4306 62.907 72.514 62.9236 72.5982 62.9232C72.6825 62.9242 72.7662 62.9079 72.8438 62.8752C72.9215 62.8425 72.9916 62.7941 73.0496 62.7332C73.1113 62.6757 73.1601 62.6059 73.1929 62.5284C73.2258 62.4509 73.2419 62.3673 73.2402 62.2832C73.2412 62.1991 73.2249 62.1158 73.1921 62.0383C73.1593 61.9609 73.1108 61.891 73.0496 61.8332C72.9919 61.7717 72.922 61.7231 72.8442 61.6903C72.7664 61.6576 72.6826 61.6415 72.5982 61.6432Z" fill="black"/>
<path d="M78.6266 59.0632C78.2951 58.7411 77.876 58.523 77.4214 58.436C76.9668 58.3489 76.4965 58.3966 76.0688 58.5732C75.7922 58.6876 75.5402 58.854 75.3266 59.0632C75.1194 59.2707 74.9527 59.5149 74.8351 59.7832C74.7129 60.0639 74.6514 60.3672 74.6545 60.6732C74.6523 60.9823 74.7138 61.2887 74.8351 61.5732C74.9501 61.8459 75.117 62.0938 75.3266 62.3032C75.5411 62.5113 75.7929 62.6775 76.0688 62.7932C76.358 62.9133 76.6684 62.9745 76.9816 62.9732C77.295 62.9753 77.6055 62.9141 77.8944 62.7932C78.1693 62.6811 78.4185 62.5144 78.6266 62.3032C78.8362 62.0938 79.0031 61.8459 79.1181 61.5732C79.2394 61.2887 79.3009 60.9823 79.2987 60.6732C79.3018 60.3672 79.2403 60.0639 79.1181 59.7832C79.0005 59.5149 78.8339 59.2707 78.6266 59.0632ZM78.2555 61.2632C78.1956 61.4324 78.1037 61.5886 77.9847 61.7232C77.8597 61.8477 77.7137 61.9492 77.5534 62.0232C77.1864 62.17 76.7768 62.17 76.4099 62.0232C76.2455 61.9564 76.0982 61.8539 75.9786 61.7232C75.854 61.5927 75.7613 61.4353 75.7077 61.2632C75.6428 61.0732 75.6089 60.874 75.6074 60.6732C75.6041 60.472 75.6381 60.272 75.7077 60.0832C75.7716 59.9158 75.8631 59.7603 75.9786 59.6232C76.1036 59.4987 76.2496 59.3972 76.4099 59.3232C76.7768 59.1763 77.1864 59.1763 77.5534 59.3232C77.7177 59.39 77.8651 59.4925 77.9847 59.6232C78.1093 59.7537 78.202 59.9111 78.2555 60.0832C78.3205 60.2732 78.3544 60.4724 78.3558 60.6732C78.3553 60.874 78.3214 61.0734 78.2555 61.2632Z" fill="black"/>
<path d="M83.01 58.4535H82.8796H82.7492C82.6589 58.4535 82.5686 58.4535 82.4784 58.4535C82.345 58.4903 82.2169 58.5441 82.0972 58.6135C81.9827 58.6825 81.8781 58.7666 81.7863 58.8635C81.7239 58.9325 81.6669 59.006 81.6157 59.0835V58.5035H80.723V62.8635H81.6157V60.6735C81.5847 60.3125 81.6963 59.9537 81.9267 59.6735C82.0438 59.5625 82.1826 59.4767 82.3345 59.4216C82.4864 59.3666 82.6481 59.3434 82.8094 59.3535H83H83.2006V58.3535C83.1304 58.3535 83.0401 58.3535 82.9598 58.3535" fill="black"/>
<path d="M87.8146 59.0635C87.6573 58.8584 87.4502 58.6967 87.2128 58.5935C86.943 58.4671 86.6483 58.4022 86.3502 58.4035C86.0367 58.3994 85.7257 58.4607 85.4374 58.5835C85.1716 58.6961 84.9324 58.8631 84.7353 59.0735C84.5414 59.2873 84.3884 59.5347 84.2839 59.8035C84.1796 60.0888 84.1254 60.3899 84.1234 60.6935C84.1186 60.9977 84.1731 61.3 84.2839 61.5835C84.3883 61.8487 84.5452 62.0902 84.7453 62.2935C84.9432 62.4981 85.1825 62.6584 85.4474 62.7635C85.7311 62.8774 86.0343 62.9351 86.3402 62.9335C86.6383 62.9349 86.933 62.87 87.2028 62.7435C87.4514 62.6305 87.6634 62.4504 87.8146 62.2235V62.7635C87.816 62.9426 87.7924 63.121 87.7444 63.2935C87.6971 63.4618 87.6151 63.6185 87.5037 63.7535C87.3748 63.8946 87.2176 64.007 87.0423 64.0835C86.8091 64.1741 86.5603 64.2183 86.3101 64.2135C86.0268 64.2172 85.746 64.1592 85.4876 64.0435C85.2338 63.9164 85.006 63.7435 84.8155 63.5335L84.2137 64.2835C84.5012 64.5551 84.843 64.763 85.2167 64.8935C85.5866 65.0095 85.9725 65.0669 86.3602 65.0635C86.7013 65.0672 87.0404 65.0131 87.3633 64.9035C87.6407 64.7986 87.8959 64.6425 88.1156 64.4435C88.3256 64.2443 88.4899 64.0021 88.597 63.7335C88.7113 63.4472 88.7692 63.1416 88.7676 62.8335V58.5335H87.8146V59.0635ZM87.4435 61.6935C87.1667 61.9375 86.8099 62.0721 86.4405 62.0721C86.071 62.0721 85.7143 61.9375 85.4374 61.6935C85.1881 61.4209 85.055 61.0623 85.0663 60.6935C85.0629 60.4924 85.0969 60.2923 85.1666 60.1035C85.2223 59.9324 85.3147 59.7754 85.4374 59.6435C85.5624 59.519 85.7084 59.4175 85.8687 59.3435C86.2357 59.1967 86.6453 59.1967 87.0122 59.3435C87.1766 59.4103 87.3239 59.5128 87.4435 59.6435C87.5681 59.774 87.6608 59.9314 87.7143 60.1035C87.784 60.2923 87.818 60.4924 87.8146 60.6935C87.8224 60.8764 87.7936 61.059 87.7299 61.2307C87.6662 61.4024 87.5688 61.5597 87.4435 61.6935Z" fill="black"/>
<path d="M52.5973 29.9932H51.183V32.5132H52.5973C53.4499 32.5132 54.3025 32.3132 54.3025 31.2532C54.3025 30.1932 53.4499 29.9932 52.5973 29.9932Z" fill="black"/>
<path d="M62.7182 32.4036C62.3518 32.3856 61.9885 32.4774 61.675 32.6673C61.3615 32.8571 61.1122 33.1363 60.9593 33.4687C60.8064 33.8011 60.757 34.1715 60.8173 34.5322C60.8776 34.8929 61.0449 35.2273 61.2976 35.4924C61.5504 35.7574 61.877 35.9408 62.2353 36.019C62.5936 36.0972 62.9672 36.0666 63.3079 35.9312C63.6486 35.7957 63.9408 35.5616 64.1467 35.259C64.3527 34.9564 64.463 34.5993 64.4635 34.2336C64.4834 33.9959 64.4527 33.7567 64.3733 33.5317C64.2939 33.3067 64.1676 33.101 64.0027 32.9281C63.8379 32.7553 63.6382 32.6192 63.4168 32.5288C63.1954 32.4384 62.9573 32.3957 62.7182 32.4036Z" fill="black"/>
<path d="M67.4425 13.6133C67.861 13.6252 68.2773 13.55 68.6649 13.3925C69.0525 13.235 69.4029 12.9985 69.6937 12.6983C69.9845 12.3981 70.2092 12.0407 70.3535 11.6489C70.4979 11.2572 70.5586 10.8397 70.5319 10.4233C70.5319 10.0188 70.452 9.61828 70.2968 9.2446C70.1415 8.87091 69.9139 8.53138 69.6271 8.24537C69.3402 7.95937 68.9996 7.7325 68.6248 7.57771C68.25 7.42293 67.8482 7.34326 67.4425 7.34326C67.0368 7.34326 66.6351 7.42293 66.2603 7.57771C65.8854 7.7325 65.5449 7.95937 65.258 8.24537C64.9711 8.53138 64.7435 8.87091 64.5883 9.2446C64.433 9.61828 64.3531 10.0188 64.3531 10.4233C64.3264 10.8397 64.3872 11.2572 64.5315 11.6489C64.6759 12.0407 64.9006 12.3981 65.1914 12.6983C65.4821 12.9985 65.8325 13.235 66.2201 13.3925C66.6078 13.55 67.0241 13.6252 67.4425 13.6133Z" fill="black"/>
<path d="M71.9663 32.2635C71.5478 32.2602 71.1439 32.417 70.8379 32.7016C70.5318 32.9863 70.347 33.3771 70.3213 33.7935H73.501C73.5159 33.5888 73.4865 33.3832 73.4146 33.1909C73.3428 32.9985 73.2302 32.8238 73.0846 32.6786C72.939 32.5334 72.7638 32.4212 72.5708 32.3496C72.3778 32.278 72.1717 32.2486 71.9663 32.2635Z" fill="black"/>
<path d="M80.041 19.2532C79.4011 19.2293 78.7687 19.3967 78.225 19.7339C77.6814 20.0711 77.2513 20.5627 76.9901 21.1455C76.7289 21.7283 76.6484 22.3757 76.7592 23.0044C76.8699 23.6331 77.1667 24.2145 77.6115 24.6737C78.0562 25.1329 78.6286 25.449 79.2549 25.5814C79.8813 25.7138 80.5331 25.6564 81.1265 25.4166C81.7199 25.1767 82.2278 24.7655 82.5849 24.2356C82.9419 23.7058 83.1319 23.0816 83.1304 22.4432C83.1571 22.0268 83.0963 21.6093 82.952 21.2176C82.8076 20.8258 82.5829 20.4684 82.2921 20.1682C82.0014 19.868 81.651 19.6315 81.2633 19.474C80.8757 19.3164 80.4594 19.2413 80.041 19.2532Z" fill="black"/>
<path d="M88.6371 3.06348H45.5057V40.8135H88.6371V3.06348ZM74.7649 5.46348H77.774L82.0069 12.3535V5.46348H84.2036V15.3835H81.3349L76.9916 8.32348V15.3835H74.7649V5.46348ZM67.4425 5.21348C68.1482 5.16341 68.8565 5.26273 69.5209 5.50493C70.1853 5.74713 70.7908 6.12672 71.2976 6.61877C71.8044 7.11082 72.2011 7.70419 72.4616 8.35992C72.722 9.01565 72.8404 9.7189 72.8089 10.4235C72.8089 11.8424 72.2435 13.2032 71.2371 14.2065C70.2307 15.2098 68.8658 15.7735 67.4425 15.7735C66.0193 15.7735 64.6543 15.2098 63.648 14.2065C62.6416 13.2032 62.0762 11.8424 62.0762 10.4235C62.0447 9.7189 62.1631 9.01565 62.4235 8.35992C62.684 7.70419 63.0807 7.11082 63.5875 6.61877C64.0943 6.12672 64.6998 5.74713 65.3642 5.50493C66.0286 5.26273 66.7369 5.16341 67.4425 5.21348ZM50.6915 5.46348H53.7007L57.9336 12.3535V5.46348H60.1303V15.3835H57.2515L52.9082 8.32348V15.3835H50.6815V5.46348H50.6915ZM55.0347 17.2435C56.4882 17.134 57.9273 17.5931 59.0469 18.5235L57.5022 20.2035C57.1952 19.8769 56.8187 19.623 56.4004 19.4604C55.9821 19.2977 55.5326 19.2304 55.0849 19.2635C54.2362 19.2635 53.4224 19.5996 52.8223 20.1978C52.2222 20.796 51.8851 21.6074 51.8851 22.4535C51.8851 23.2995 52.2222 24.1109 52.8223 24.7091C53.4224 25.3074 54.2362 25.6435 55.0849 25.6435C55.7935 25.6474 56.4923 25.4792 57.1211 25.1535V23.5435H55.3156V21.5435H59.2074V26.7235C57.9142 27.3724 56.4823 27.6984 55.0347 27.6735C54.3298 27.7043 53.626 27.5925 52.9657 27.3448C52.3053 27.0971 51.7021 26.7187 51.1924 26.2323C50.6827 25.746 50.277 25.1617 49.9999 24.5149C49.7228 23.868 49.5799 23.1719 49.5799 22.4685C49.5799 21.7651 49.7228 21.069 49.9999 20.4221C50.277 19.7752 50.6827 19.191 51.1924 18.7046C51.7021 18.2183 52.3053 17.8398 52.9657 17.5922C53.626 17.3445 54.3298 17.2327 55.0347 17.2635V17.2435ZM52.8982 33.3935H51.183V36.8435H50.0997V28.9935H52.8882C54.8943 28.9935 55.4259 30.2035 55.4259 31.1835C55.4259 32.1635 54.9144 33.3735 52.8882 33.3735L52.8982 33.3935ZM59.4682 32.5835C59.3078 32.539 59.143 32.5121 58.9767 32.5035C57.9737 32.5035 57.4521 33.0335 57.4521 34.1835V36.8135H56.449V31.5935H57.4521V32.4035C57.6151 32.1062 57.8585 31.8605 58.1546 31.6943C58.4507 31.5282 58.7877 31.4482 59.1272 31.4635C59.2806 31.4608 59.4333 31.4844 59.5786 31.5335L59.4682 32.5835ZM62.7181 36.9935C62.1758 36.9797 61.6495 36.8068 61.2053 36.4964C60.761 36.186 60.4184 35.7518 60.2203 35.2483C60.0223 34.7447 59.9775 34.1941 60.0918 33.6654C60.206 33.1366 60.4741 32.6532 60.8625 32.2755C61.251 31.8979 61.7424 31.6429 62.2755 31.5423C62.8086 31.4418 63.3596 31.5001 63.8595 31.7102C64.3595 31.9202 64.7862 32.2726 65.0863 32.7232C65.3864 33.1738 65.5466 33.7026 65.5468 34.2435C65.5442 34.6098 65.4687 34.972 65.3248 35.309C65.1808 35.6461 64.9713 35.9513 64.7082 36.2071C64.4451 36.4628 64.1338 36.664 63.7922 36.799C63.4506 36.934 63.0855 37.0001 62.7181 36.9935ZM67.8538 37.6135C67.8538 38.1535 67.8538 39.5135 66.2288 39.5135C66.0072 39.5203 65.7862 39.4864 65.5769 39.4135L65.6872 38.4935C65.8191 38.5435 65.9577 38.5738 66.0984 38.5835C66.6501 38.5835 66.8407 38.2335 66.8407 37.5835V31.5935H67.8438V37.5935L67.8538 37.6135ZM67.3422 30.4735C67.1979 30.4715 67.0573 30.427 66.9382 30.3456C66.8191 30.2642 66.7268 30.1495 66.6729 30.016C66.619 29.8824 66.606 29.736 66.6353 29.595C66.6647 29.4541 66.7352 29.325 66.838 29.2239C66.9408 29.1228 67.0713 29.0542 67.2131 29.0269C67.3548 28.9995 67.5015 29.0145 67.6347 29.0701C67.768 29.1256 67.8817 29.2191 67.9618 29.339C68.0418 29.4588 68.0845 29.5995 68.0845 29.7435C68.0819 29.938 68.0025 30.1237 67.8636 30.2603C67.7247 30.3969 67.5374 30.4735 67.3422 30.4735ZM66.4896 27.4735L63.972 19.8635V27.4735H61.7452V17.4935H65.0653L67.3523 23.9935L69.6593 17.5235H72.9594V27.4435H70.7927V19.8035L68.1547 27.4135L66.4896 27.4735ZM74.5843 34.6435H70.3313C70.3793 35.0811 70.5996 35.4817 70.9438 35.7574C71.288 36.0331 71.728 36.1612 72.1669 36.1135C72.4547 36.1054 72.7364 36.0297 72.9892 35.8924C73.242 35.7551 73.4586 35.5602 73.6214 35.3235L74.3837 35.9035C74.1052 36.2681 73.7406 36.5584 73.3223 36.7486C72.9041 36.9387 72.4451 37.0229 71.9864 36.9935C71.6213 37.0094 71.2569 36.9489 70.9166 36.8159C70.5764 36.6829 70.2678 36.4804 70.0108 36.2214C69.7538 35.9623 69.5541 35.6525 69.4244 35.3119C69.2948 34.9712 69.2381 34.6073 69.2581 34.2435C69.247 33.8802 69.3105 33.5185 69.4446 33.1805C69.5786 32.8426 69.7805 32.5355 70.0378 32.278C70.2951 32.0205 70.6024 31.8182 70.9409 31.6833C71.2795 31.5484 71.642 31.4838 72.0064 31.4935C72.3651 31.4817 72.7222 31.5465 73.0537 31.6836C73.3852 31.8206 73.6835 32.0267 73.9285 32.2881C74.1736 32.5494 74.3598 32.86 74.4746 33.199C74.5895 33.538 74.6303 33.8975 74.5943 34.2535V34.6035L74.5843 34.6435ZM78.3056 36.1035C78.5524 36.1117 78.7977 36.0627 79.0223 35.9603C79.2468 35.8579 79.4444 35.705 79.5996 35.5135L80.3118 36.2235C79.9945 36.5557 79.5995 36.8041 79.1622 36.9465C78.7249 37.089 78.2589 37.1209 77.8061 37.0395C77.3534 36.958 76.928 36.7658 76.5681 36.48C76.2083 36.1942 75.9253 35.8238 75.7445 35.402C75.5637 34.9802 75.4908 34.5203 75.5323 34.0635C75.5738 33.6067 75.7285 33.1673 75.9824 32.7848C76.2363 32.4023 76.5814 32.0887 76.9869 31.872C77.3925 31.6553 77.8456 31.5425 78.3056 31.5435C78.6791 31.5381 79.0498 31.609 79.3948 31.7517C79.7398 31.8944 80.0518 32.106 80.3118 32.3735L79.5494 33.0535C79.345 32.8482 79.093 32.6964 78.8157 32.6113C78.5384 32.5263 78.2444 32.5107 77.9596 32.5659C77.6748 32.6211 77.4081 32.7454 77.183 32.9279C76.9579 33.1104 76.7814 33.3453 76.669 33.612C76.5567 33.8786 76.512 34.1688 76.5389 34.4568C76.5658 34.7448 76.6635 35.0217 76.8233 35.2631C76.9832 35.5045 77.2002 35.7029 77.4552 35.8407C77.7103 35.9786 77.9955 36.0517 78.2856 36.0535L78.3056 36.1035ZM84.7754 36.8135C84.4894 36.9326 84.1825 36.9937 83.8726 36.9935C82.3179 36.9935 82.2978 36.0535 82.2978 35.2135V32.4735H81.1945V31.6135H82.358V30.1435H83.3611V31.6135H84.8055V32.4735H83.331V34.8535C83.331 35.4435 83.331 36.0635 84.0933 36.0635C84.3397 36.0758 84.5851 36.0241 84.8055 35.9135V36.8035L84.7754 36.8135ZM80.0209 27.6735C78.9937 27.646 77.9975 27.3172 77.1568 26.7282C76.316 26.1392 75.6681 25.3163 75.294 24.3622C74.9199 23.4081 74.8363 22.3652 75.0535 21.3639C75.2707 20.3627 75.7792 19.4475 76.5153 18.7328C77.2515 18.0181 78.1826 17.5356 79.1923 17.3457C80.202 17.1558 81.2455 17.2668 82.1923 17.6649C83.139 18.063 83.9471 18.7305 84.5153 19.584C85.0836 20.4375 85.3869 21.4391 85.3872 22.4635C85.4187 23.1681 85.3004 23.8713 85.0399 24.527C84.7794 25.1828 84.3827 25.7761 83.8759 26.2682C83.3691 26.7602 82.7636 27.1398 82.0992 27.382C81.4348 27.6242 80.7265 27.7235 80.0209 27.6735Z" fill="black"/>
<path d="M0.418274 66.9932H90.6934V0.993164H0.418274V66.9932ZM90.4126 66.6832H0.739252V1.29316H90.4126V66.6832Z" fill="black"/>
</g>
<defs>
<clipPath id="clip0_43_61">
<rect width="90.2952" height="66.02" fill="white" transform="translate(0.418274 0.983398)"/>
</clipPath>
</defs>
</svg>
