<svg width="67" height="65" viewBox="0 0 67 65" fill="none" xmlns="http://www.w3.org/2000/svg">
<g clip-path="url(#clip0_214_619)">
<path d="M-0.0198973 32.3884C-0.063455 25.9381 1.83624 19.62 5.43883 14.2335C9.04143 8.84703 14.185 4.63413 20.2189 2.12783C26.2528 -0.378475 32.9058 -1.06554 39.3362 0.153548C45.7665 1.37264 51.6853 4.44311 56.3437 8.97649C61.0022 13.5099 64.1908 19.3024 65.5063 25.6213C66.8218 31.9402 66.2051 38.5015 63.7341 44.475C61.2631 50.4486 57.0488 55.5659 51.6246 59.1797C46.2004 62.7934 39.8098 64.7412 33.2615 64.7765C28.9155 64.8091 24.6056 63.9964 20.579 62.3852C16.5523 60.7739 12.8881 58.3957 9.79629 55.3869C6.70448 52.3781 4.24589 48.7978 2.56144 44.8512C0.876978 40.9047 -0.000225434 36.6695 -0.0198973 32.3884ZM61.0663 32.3884C60.7052 30.1554 60.5347 27.873 59.9529 25.6993C56.2115 11.8666 42.2389 3.46823 27.504 6.17548C23.671 6.86353 20.0338 8.35813 16.8407 10.5573C13.6476 12.7564 10.9738 15.6083 9.00188 18.9183C7.02991 22.2282 5.80617 25.9184 5.41421 29.7367C5.02225 33.5551 5.47129 37.4118 6.73068 41.0436C10.8934 53.0089 23.4416 60.4785 36.692 58.8779C43.3139 58.0981 49.4268 54.9882 53.9056 50.1208C58.3843 45.2534 60.9272 38.9561 61.0663 32.3884Z" fill="black"/>
<path d="M25.8989 19.435C25.8989 21.0949 25.8989 22.5572 25.8989 24.0196C25.8989 28.4164 25.9792 32.8231 26.0093 37.2297C26.0093 43.3754 30.3324 44.561 34.8061 43.9386C38.5776 43.4248 40.1524 41.4191 40.2226 37.1408C40.3129 31.8449 40.2226 26.5391 40.2727 21.2333V19.5437H43.9941C43.9941 22.1818 43.9941 24.7804 43.9941 27.3789C43.9941 31.2619 43.9941 35.145 43.7433 39.0082C43.3822 44.1065 39.8615 46.9818 34.5152 47.3473C32.8352 47.4557 31.1481 47.3394 29.4999 47.0015C25.0865 46.0925 22.5688 43.1185 22.3983 38.3956C22.1876 32.4674 22.2478 26.4699 22.1575 20.5021C22.1575 19.7314 22.3782 19.356 23.2208 19.4153C24.0633 19.4745 24.8357 19.4153 25.8989 19.4153" fill="black"/>
</g>
<defs>
<clipPath id="clip0_214_619">
<rect width="66.1616" height="64.7763" fill="white"/>
</clipPath>
</defs>
</svg>
