<svg width="76" height="76" viewBox="0 0 76 76" fill="none" xmlns="http://www.w3.org/2000/svg">
<g clip-path="url(#clip0_43_90)">
<path d="M37.9343 0.983398C30.594 0.983398 23.4186 3.15341 17.3154 7.21902C11.2121 11.2846 6.45526 17.0632 3.64625 23.8241C0.837248 30.585 0.102284 38.0244 1.5343 45.2017C2.96632 52.379 6.501 58.9718 11.6914 64.1463C16.8817 69.3209 23.4946 72.8448 30.6939 74.2725C37.8931 75.7001 45.3553 74.9674 52.1369 72.1669C58.9184 69.3665 64.7147 64.6241 68.7927 58.5395C72.8708 52.4549 75.0474 45.3013 75.0474 37.9834C75.0474 33.1245 74.0874 28.3132 72.2223 23.8241C70.3572 19.3351 67.6235 15.2562 64.1772 11.8204C60.7309 8.38468 56.6396 5.65928 52.1369 3.79986C47.6341 1.94043 42.8081 0.983398 37.9343 0.983398ZM37.9343 73.5734C30.8781 73.5754 23.9798 71.4914 18.1116 67.585C12.2434 63.6786 7.66878 58.1252 4.96621 51.627C2.26365 45.1288 1.55449 37.9775 2.9284 31.0775C4.30231 24.1775 7.6976 17.8386 12.685 12.8622C17.6723 7.88587 24.0278 4.49559 30.9477 3.12004C37.8677 1.7445 45.0413 2.44546 51.5617 5.13431C58.0821 7.82316 63.6563 12.3791 67.5796 18.2262C71.5029 24.0732 73.599 30.9487 73.603 37.9834C73.6056 42.6554 72.6851 47.2821 70.8938 51.5993C69.1026 55.9165 66.4759 59.8396 63.1636 63.1446C59.8513 66.4495 55.9184 69.0716 51.5895 70.861C47.2606 72.6504 42.6205 73.5721 37.9343 73.5734Z" fill="black"/>
<path d="M47.9649 19.7432C45.826 19.7494 43.7287 20.3327 41.8956 21.4314C40.0625 22.53 38.5619 24.1029 37.5532 25.9832C36.782 24.5317 35.7158 23.2564 34.4227 22.2386C33.1295 21.2208 31.6378 20.4828 30.0427 20.0718C28.4475 19.6608 26.7839 19.5858 25.1581 19.8515C23.5322 20.1172 21.9797 20.7178 20.5997 21.615C19.2196 22.5123 18.0423 23.6864 17.1428 25.0626C16.2433 26.4387 15.6413 27.9866 15.3754 29.6077C15.1094 31.2287 15.1852 32.8871 15.598 34.4773C16.0108 36.0675 16.7515 37.5544 17.7729 38.8432L17.8732 38.9832L18.0537 39.2032L37.5331 62.7732L56.5912 39.6832C58.1832 38.0043 59.2468 35.897 59.6504 33.6219C60.0541 31.3468 59.7801 29.0037 58.8623 26.8822C57.9445 24.7606 56.4232 22.9538 54.4864 21.685C52.5496 20.4163 50.2824 19.7412 47.9649 19.7432ZM37.5532 37.1632L37.6334 37.3132H37.4729C37.4958 37.2645 37.5227 37.2177 37.5532 37.1732V37.1632ZM37.4829 58.4532L22.1261 28.4532H29.629L37.4829 45.4532L45.3369 28.4532H52.8397L37.4829 58.4532Z" fill="black"/>
<path d="M14.0516 60.5033L16.6696 54.9033L17.5723 55.7933L15.5963 59.8933L19.6386 57.8333L20.5313 58.7033L14.9443 61.3833L14.0516 60.5033Z" fill="black"/>
<path d="M18.2744 64.2536L21.4842 59.3936L25.0952 61.7736L24.5536 62.5936L21.9255 60.8636L21.2134 61.9436L23.6608 63.5536L23.1192 64.3636L20.6717 62.7636L19.7991 64.0836L22.5173 65.8736L21.9757 66.6836L18.2744 64.2536Z" fill="black"/>
<path d="M27.1114 66.7332L27.4825 65.8332L29.8296 66.8332L28.9068 68.9832C28.511 69.1209 28.0916 69.1787 27.6731 69.1532C27.1877 69.1449 26.7081 69.0465 26.2588 68.8632C25.7359 68.6536 25.2787 68.3083 24.9347 67.8632C24.6148 67.4636 24.4288 66.9739 24.4031 66.4632C24.3744 65.9295 24.467 65.3963 24.6739 64.9032C24.8863 64.3747 25.2317 63.9097 25.677 63.5532C26.0906 63.2172 26.599 63.018 27.1314 62.9832C27.6137 62.9563 28.0953 63.0455 28.5357 63.2432C29.0915 63.4382 29.5721 63.8019 29.9099 64.2832C30.1704 64.7227 30.2596 65.2424 30.1607 65.7432L28.9971 65.5032C29.0343 65.2249 28.9741 64.9424 28.8266 64.7032C28.6598 64.4517 28.4176 64.2592 28.1345 64.1532C27.9265 64.0593 27.7008 64.0108 27.4725 64.0108C27.2441 64.0108 27.0184 64.0593 26.8104 64.1532C26.575 64.2714 26.3652 64.4347 26.1931 64.6337C26.021 64.8327 25.8899 65.0636 25.8074 65.3132C25.5576 65.8118 25.497 66.3836 25.6369 66.9232C25.7109 67.1385 25.8321 67.3345 25.9918 67.4971C26.1514 67.6597 26.3454 67.7848 26.5597 67.8632C26.7967 67.9551 27.0477 68.0058 27.3019 68.0132C27.5454 68.0241 27.789 67.9971 28.0241 67.9332L28.305 67.2532L27.1114 66.7332Z" fill="black"/>
<path d="M35.7276 71.1332L34.4738 70.9032L34.203 69.5132L31.916 69.1132L31.2038 70.3232L29.9801 70.1032L33.24 64.7832L34.4638 65.0032L35.7276 71.1332ZM34.0124 68.4932L33.6011 66.2332L32.4476 68.2332L34.0124 68.4932Z" fill="black"/>
<path d="M37.6134 71.1732L37.2122 65.3732L38.3556 65.2932L41.0037 69.0032L40.7429 65.1332L41.8262 65.0532L42.2274 70.8532L41.0539 70.9432L38.4459 67.3132L38.7067 71.1032L37.6134 71.1732Z" fill="black"/>
<path d="M45.4676 68.9919L44.3854 69.2529L44.6472 70.3318L45.7294 70.0708L45.4676 68.9919Z" fill="black"/>
<path d="M46.6911 66.9234C46.4774 66.4588 46.3646 65.9544 46.36 65.4433C46.3681 65.1213 46.4326 64.8032 46.5506 64.5033C46.6576 64.2147 46.8252 63.9522 47.0421 63.7333C47.348 63.434 47.7091 63.1963 48.1054 63.0334C48.4489 62.872 48.8219 62.7825 49.2015 62.7704C49.581 62.7584 49.959 62.8241 50.3121 62.9634C51.0084 63.3454 51.5566 63.9486 51.8692 64.6771C52.1818 65.4056 52.241 66.2174 52.0373 66.9833C51.8941 67.3324 51.6804 67.6483 51.4095 67.9116C51.1386 68.1748 50.8162 68.3796 50.4625 68.5133C50.1186 68.6791 49.7435 68.771 49.3616 68.783C48.9798 68.7951 48.5996 68.7271 48.2458 68.5833C47.8872 68.4159 47.5653 68.1796 47.2985 67.8878C47.0317 67.5961 46.8253 67.2548 46.6911 66.8834V66.9234ZM47.7944 66.3834C47.9643 66.8956 48.3228 67.3244 48.7975 67.5833C48.9955 67.6747 49.2112 67.7221 49.4294 67.7221C49.6476 67.7221 49.8633 67.6747 50.0613 67.5833C50.2638 67.5049 50.4463 67.3826 50.5955 67.2252C50.7446 67.0678 50.8569 66.8793 50.924 66.6734C51.0592 66.1467 50.9987 65.589 50.7534 65.1034C50.5759 64.5954 50.2195 64.169 49.7504 63.9033C49.5531 63.8093 49.3372 63.7604 49.1185 63.7604C48.8997 63.7604 48.6838 63.8093 48.4865 63.9033C48.2814 63.9811 48.096 64.103 47.9434 64.2603C47.7909 64.4175 47.6749 64.6064 47.6038 64.8134C47.469 65.3334 47.5296 65.8848 47.7744 66.3633" fill="black"/>
<path d="M54.886 66.2936L51.5759 61.5136L53.582 60.1136C53.9456 59.8364 54.3522 59.6202 54.7857 59.4736C55.0765 59.4022 55.3827 59.4268 55.6584 59.5436C55.9557 59.6734 56.2097 59.885 56.3906 60.1536C56.6299 60.4715 56.7377 60.8689 56.6915 61.2636C56.6131 61.6938 56.386 62.0831 56.0496 62.3636C56.3124 62.3271 56.5791 62.3271 56.842 62.3636C57.2187 62.4609 57.5849 62.5948 57.9353 62.7636L59.1691 63.2936L58.0156 64.0936L56.5912 63.5336C56.2658 63.3928 55.9306 63.2758 55.5882 63.1836C55.4461 63.1525 55.2989 63.1525 55.1568 63.1836C54.9687 63.2477 54.7925 63.3423 54.6353 63.4636L54.4346 63.6036L55.8189 65.6036L54.886 66.2936ZM53.9833 62.8736L54.6954 62.3836C54.9972 62.1959 55.2766 61.9745 55.528 61.7236C55.614 61.6118 55.6599 61.4745 55.6584 61.3336C55.6529 61.1785 55.6004 61.0286 55.5079 60.9036C55.4172 60.7565 55.2738 60.6492 55.1067 60.6036C54.9409 60.5653 54.7668 60.5865 54.6152 60.6636C54.5249 60.6636 54.2942 60.8636 53.893 61.1336L53.1407 61.6536L53.9833 62.8736Z" fill="black"/>
<path d="M60.804 58.7734L60.0918 58.1034L61.8372 56.2734L63.5123 57.8734C63.4963 58.2908 63.401 58.7014 63.2314 59.0834C63.0524 59.5338 62.7866 59.9449 62.449 60.2934C62.0756 60.7033 61.6022 61.0099 61.0748 61.1834C60.5896 61.3436 60.0655 61.3436 59.5803 61.1834C59.0723 61.0162 58.6092 60.7357 58.2262 60.3634C57.8106 59.985 57.4997 59.5063 57.3234 58.9734C57.158 58.4699 57.158 57.9269 57.3234 57.4234C57.4759 56.967 57.7336 56.5526 58.0757 56.2134C58.4651 55.7556 58.9931 55.4362 59.5803 55.3034C60.0856 55.2193 60.6043 55.3262 61.0347 55.6034L60.3827 56.6034C60.1353 56.4671 59.848 56.4211 59.5702 56.4734C59.2759 56.5361 59.009 56.6901 58.8079 56.9134C58.6435 57.0701 58.5145 57.26 58.4298 57.4704C58.345 57.6808 58.3063 57.9069 58.3164 58.1334C58.3787 58.6347 58.621 59.0965 58.9985 59.4334C59.373 59.8479 59.8868 60.1112 60.4429 60.1734C60.6701 60.1808 60.8963 60.139 61.1058 60.051C61.3153 59.9629 61.5032 59.8307 61.6566 59.6634C61.8279 59.4796 61.9639 59.2661 62.0578 59.0334C62.1518 58.8101 62.2127 58.5742 62.2384 58.3334L61.7068 57.8234L60.804 58.7734Z" fill="black"/>
<path d="M8.89586 30.2735L9.58797 29.2735C10.0974 29.5589 10.4963 30.006 10.7214 30.5435C10.9026 31.0787 10.9026 31.6584 10.7214 32.1935C10.6283 32.547 10.4601 32.8763 10.2282 33.1592C9.99633 33.4422 9.70614 33.6721 9.37733 33.8335C8.63452 34.1711 7.78903 34.207 7.02014 33.9335C6.19436 33.7445 5.47483 33.2424 5.01403 32.5335C4.82816 32.2046 4.7158 31.8395 4.68463 31.4632C4.65347 31.087 4.70424 30.7084 4.83348 30.3535C4.99571 29.7178 5.40303 29.1716 5.96693 28.8335C6.34479 28.6304 6.77221 28.5368 7.20069 28.5635L7.13048 29.7835C6.83708 29.757 6.54338 29.8311 6.29794 29.9935C6.0561 30.1615 5.88191 30.4095 5.80644 30.6935C5.74033 30.8871 5.71951 31.0931 5.74559 31.2959C5.77167 31.4987 5.84395 31.6929 5.9569 31.8635C6.30252 32.2901 6.78373 32.5864 7.32106 32.7035C7.85114 32.9187 8.43976 32.9434 8.98613 32.7735C9.17216 32.6946 9.33758 32.5743 9.46972 32.4217C9.60186 32.2692 9.69721 32.0885 9.74846 31.8935C9.84017 31.6031 9.81868 31.2889 9.68827 31.0135C9.52341 30.6895 9.25527 30.4292 8.92595 30.2735" fill="black"/>
<path d="M11.9251 28.4432L6.60889 25.7132L8.64509 21.7832L9.54784 22.2432L8.06332 25.1032L9.24693 25.7132L10.6211 23.0532L11.5138 23.5132L10.1396 26.1732L11.584 26.9132L13.1187 23.9532L14.0114 24.4132L11.9251 28.4432Z" fill="black"/>
<path d="M14.7938 23.1834L10.1096 19.4834L11.6844 17.4834C11.9638 17.0994 12.3023 16.7619 12.6874 16.4834C12.9526 16.3249 13.2629 16.2581 13.5701 16.2934C13.9018 16.3293 14.2157 16.4614 14.4729 16.6734C14.8023 16.9137 15.0253 17.2723 15.0948 17.6734C15.1471 18.1188 15.0406 18.5684 14.7938 18.9434C15.047 18.8411 15.3141 18.7771 15.5862 18.7534C15.9818 18.7397 16.3778 18.7597 16.7699 18.8134L18.144 18.9634L17.2513 20.0934L15.6765 19.9834C15.3158 19.961 14.954 19.961 14.5932 19.9834C14.4439 19.99 14.2989 20.0348 14.1719 20.1134C14.0082 20.2353 13.8629 20.3801 13.7406 20.5434L13.5902 20.7334L15.5461 22.2834L14.7938 23.1834ZM12.8579 20.1034L13.4096 19.4034C13.6493 19.1328 13.8548 18.8339 14.0215 18.5134C14.0713 18.3778 14.0713 18.229 14.0215 18.0934C13.9734 17.9443 13.8784 17.8146 13.7507 17.7234C13.6143 17.6124 13.4451 17.5491 13.2692 17.5434C13.0956 17.558 12.9326 17.6322 12.8078 17.7534C12.7376 17.8234 12.547 18.0434 12.2461 18.4334L11.6643 19.1734L12.8579 20.1034Z" fill="black"/>
<path d="M19.6085 17.7335L16.3285 14.0135L14.9944 15.1835L14.3224 14.4235L17.8933 11.2935L18.5653 12.0535L17.2313 13.2235L20.5213 16.9435L19.6085 17.7335Z" fill="black"/>
<path d="M20.7622 9.50602L19.7511 10.166L23.0391 15.1724L24.0502 14.5124L20.7622 9.50602Z" fill="black"/>
<path d="M25.1955 13.6632L22.6979 8.2432L26.4292 6.5332L26.8505 7.4532L24.2225 8.6532L24.8143 9.9432L27.0812 8.9032L27.5025 9.8132L25.2356 10.8532L26.2888 13.1632L25.1955 13.6632Z" fill="black"/>
<path d="M29.7838 5.5258L28.6256 5.85254L30.2534 11.5874L31.4116 11.2606L29.7838 5.5258Z" fill="black"/>
<path d="M32.9391 10.8436L32.2871 4.91359L36.7006 4.43359L36.8109 5.44359L33.6011 5.78359L33.7415 7.10359L36.7307 6.77359L36.841 7.77359L33.8519 8.09359L34.0324 9.71359L37.3525 9.35359L37.4529 10.3536L32.9391 10.8436Z" fill="black"/>
<path d="M39.6897 4.44336L41.8763 4.72336C42.2441 4.76176 42.6051 4.84921 42.9496 4.98336C43.278 5.12619 43.562 5.35409 43.7721 5.64336C43.987 5.94266 44.1373 6.28317 44.2135 6.64336C44.2897 7.11364 44.2897 7.59308 44.2135 8.06336C44.2003 8.49848 44.1121 8.9281 43.9527 9.33336C43.7822 9.7253 43.5168 10.0689 43.1803 10.3334C42.9126 10.5236 42.603 10.647 42.2776 10.6934C41.9219 10.7484 41.5599 10.7484 41.2043 10.6934L38.9374 10.3534L39.6897 4.44336ZM40.7529 5.60336L40.2414 9.52336L41.1341 9.64336C41.3775 9.66925 41.6229 9.66925 41.8663 9.64336C42.0502 9.63134 42.2272 9.56906 42.3779 9.46336C42.5495 9.321 42.6838 9.13909 42.7691 8.93336C42.9042 8.59012 42.9919 8.23016 43.0299 7.86336C43.0842 7.50875 43.0842 7.14797 43.0299 6.79336C42.9921 6.56938 42.9029 6.35717 42.7691 6.17336C42.6314 6.0104 42.4507 5.88915 42.2475 5.82336C41.9197 5.73117 41.5838 5.67089 41.2444 5.64336L40.7529 5.60336Z" fill="black"/>
<path d="M49.2488 13.0034L50.0413 6.71338L51.2048 7.30338L50.5628 11.9234L53.8629 8.64338L55.0064 9.22338L50.4024 13.5834L49.2488 13.0034Z" fill="black"/>
<path d="M52.8799 14.9832L56.5812 10.3032L60.0718 13.0332L59.4399 13.8332L56.9122 11.8332L56.0897 12.8732L58.4468 14.7332L57.825 15.5132L55.4678 13.6632L54.4547 14.9432L57.0827 17.0032L56.4608 17.7932L52.8799 14.9832Z" fill="black"/>
<path d="M60.7539 19.2632L61.5262 18.6132L63.2013 20.6132L61.3758 22.1432C60.952 22.0785 60.5438 21.9361 60.1721 21.7232C59.7266 21.4797 59.329 21.1578 58.9985 20.7732C58.6231 20.3456 58.3641 19.8291 58.2462 19.2732C58.1448 18.7602 58.208 18.2284 58.4268 17.7532C58.6579 17.2525 59.0011 16.8112 59.4298 16.4632C59.8795 16.0756 60.4219 15.8103 61.0046 15.6932C61.5401 15.581 62.0972 15.6369 62.5995 15.8532C63.0504 16.0573 63.4459 16.3659 63.753 16.7532C64.1781 17.1994 64.4457 17.7717 64.5153 18.3832C64.54 18.9096 64.3604 19.4253 64.0138 19.8232L63.0709 19.0532C63.2359 18.8166 63.3139 18.5305 63.2916 18.2432C63.2631 17.9333 63.1327 17.6414 62.9205 17.4132C62.7768 17.2299 62.5965 17.0784 62.391 16.9683C62.1856 16.8581 61.9594 16.7917 61.7268 16.7732C61.1896 16.7844 60.6768 16.9989 60.2924 17.3732C59.8258 17.7076 59.5005 18.203 59.3797 18.7632C59.3447 18.9937 59.3617 19.229 59.4294 19.4522C59.497 19.6753 59.6137 19.8806 59.7709 20.0532C59.9385 20.2505 60.1429 20.4135 60.3727 20.5332C60.5927 20.6559 60.8291 20.7468 61.0748 20.8032L61.6566 20.3132L60.7539 19.2632Z" fill="black"/>
<path d="M64.1342 28.6936L63.5123 27.5436L64.5154 26.4436L63.3819 24.3436L61.9475 24.5536L61.3457 23.4336L67.7151 22.6636L68.317 23.7836L64.1342 28.6936ZM65.1373 25.6336L66.702 23.8636L64.3649 24.1936L65.1373 25.6336Z" fill="black"/>
<path d="M64.4953 29.7134L70.2027 27.9634L70.5538 29.0834L67.4543 32.5834L71.2659 31.4134L71.5969 32.4834L65.8896 34.2334L65.5285 33.0834L68.5477 29.6434L64.8263 30.7834L64.4953 29.7134Z" fill="black"/>
</g>
<defs>
<clipPath id="clip0_43_90">
<rect width="74.2764" height="74.05" fill="white" transform="translate(0.791138 0.983398)"/>
</clipPath>
</defs>
</svg>
